<svg xmlns="http://www.w3.org/2000/svg" viewBox="0 0 68.28 91.46"><defs><style>.cls-1{isolation:isolate;}.cls-2{fill:#726a6a;}.cls-3{fill:#5b5656;}.cls-4{fill:#fff;opacity:0.8;mix-blend-mode:soft-light;}</style></defs><title>Asset 5</title><g class="cls-1"><g id="Layer_2" data-name="Layer 2"><g id="Layer_1-2" data-name="Layer 1"><path class="cls-2" d="M67.46,83.23a8.9,8.9,0,0,1-3.09,2.69c-1.73,1.15-3,2.77-4.77,3.88-3,1.94-6.79,1.84-10.23,1.38-2.85-.39-4.44-1.25-4.85-4.22s.47-5.36,3.07-7,4.4-2.17,5.2-5.71c.18-.81,0-1.54.62-2.25,1.89-2.23,6.37-1.47,8.72-.76,2.86.71,2.76,1.2,4.29,3.8S69.15,80.39,67.46,83.23Z"/><path class="cls-3" d="M53.9,71.5a4.24,4.24,0,0,0-.49.46,2,2,0,0,0-.41.82A5.4,5.4,0,0,0,53.9,71.5Z"/><path class="cls-3" d="M66.16,81.26c-1.73,1.15-3,2.77-4.77,3.88-3,1.94-6.79,1.84-10.23,1.38-2.85-.39-4.44-1.25-4.85-4.22A9.22,9.22,0,0,1,46.22,81,6.57,6.57,0,0,0,44.52,87c.41,3,2,3.83,4.85,4.22,3.44.46,7.2.56,10.23-1.38,1.74-1.11,3-2.73,4.77-3.88a8.9,8.9,0,0,0,3.09-2.69,5.54,5.54,0,0,0,.78-3.46A18.41,18.41,0,0,1,66.16,81.26Z"/><ellipse class="cls-3" cx="59.25" cy="76.83" rx="3.07" ry="2.76" transform="translate(-37.63 71.67) rotate(-49.32)"/><path class="cls-4" d="M56.88,75.59a2.88,2.88,0,0,1,4.1-.27,2.81,2.81,0,0,1,.54,3.07,2.93,2.93,0,0,0-.15-3.78,2.87,2.87,0,0,0-4.09.28,3.47,3.47,0,0,0-.7,1.07C56.68,75.83,56.77,75.71,56.88,75.59Z"/><path class="cls-2" d="M57.07,26.23c-.34,2.6-1.49,2.91-3.73,4.07-3.27,1.68-7.18,4-10.91,4.47-3,.35-6.06-.61-9-1-6.12-.84-16.81,2.22-21.3-3.17A14.41,14.41,0,0,0,6.47,26,5.77,5.77,0,0,1,3.8,24a8.32,8.32,0,0,1-.75-5.52c1.33-7.72,10.78-4.11,13.36-10.21.92-2.19,1-3.73,3-5.35C22.08.67,25.61.3,29,0a1.27,1.27,0,0,1,.28,0h.07a2.88,2.88,0,0,1,.41,0h0A23.49,23.49,0,0,1,44.45,6.8,27.89,27.89,0,0,1,49,13.87c1.32,2.73,2.51,2.41,5,3.64a5.24,5.24,0,0,1,2.53,1.87C57.63,21.14,57.32,24.36,57.07,26.23Z"/><path class="cls-3" d="M56.42,23.41c-3.27,1.68-7.18,4-10.91,4.47-3,.35-6.06-.61-9-1-6.12-.84-16.81,2.22-21.3-3.17a14.41,14.41,0,0,0-5.63-4.63,5.77,5.77,0,0,1-2.67-2A6.51,6.51,0,0,1,6,14.05a5.92,5.92,0,0,0-3,4.43A8.32,8.32,0,0,0,3.8,24a5.77,5.77,0,0,0,2.67,2,14.41,14.41,0,0,1,5.63,4.63c4.49,5.39,15.18,2.33,21.3,3.17,3,.4,6,1.36,9,1,3.73-.44,7.64-2.79,10.91-4.47,2.24-1.16,3.39-1.47,3.73-4.07A23.56,23.56,0,0,0,57.31,23Z"/><ellipse class="cls-3" cx="18.69" cy="22.75" rx="4.35" ry="3.91" transform="translate(-8.06 10.44) rotate(-25.88)"/><path class="cls-4" d="M16.31,19.81a4.09,4.09,0,0,1,5.48,2,4,4,0,0,1-1,4.3,4.12,4.12,0,0,0,1.94-5,4.08,4.08,0,0,0-5.47-2,4.88,4.88,0,0,0-1.51,1A5.7,5.7,0,0,1,16.31,19.81Z"/><ellipse class="cls-3" cx="38.57" cy="15" rx="3.07" ry="2.76" transform="translate(2.05 34.47) rotate(-49.32)"/><path class="cls-4" d="M36.21,13.76a2.88,2.88,0,0,1,4.09-.27,2.82,2.82,0,0,1,.54,3.08,2.9,2.9,0,0,0-.15-3.78,2.87,2.87,0,0,0-4.09.27,3.27,3.27,0,0,0-.69,1.07A3.25,3.25,0,0,1,36.21,13.76Z"/><path class="cls-2" d="M39.26,65.61c-1.11,6.59-7.1,8-9.76,13-.89,1.67-1.21,3.12-2.8,4.4s-4.06,1.55-5.73,3c-.89.8-1.39,2-2.36,2.77-3.3,2.51-8.42.3-10.68-2.65-2.12-2.76-1-6-2.45-9-1.33-2.66-4-4.28-5-7.16A6.21,6.21,0,0,1,.9,64.37C2.48,61.78,4,59.2,5.48,56.55,7.92,52.22,12,49.7,17,50a1.21,1.21,0,0,1,.49,0c3.49,1,5.49,3.9,9.24,4.37,2.74.35,5.95-.19,8.6.88C39.12,56.86,39.86,62,39.26,65.61Z"/><path class="cls-3" d="M14.91,81.87c-2.18-2.76-1-6-2.52-9C11,70.18,8.24,68.56,7.21,65.68a6.07,6.07,0,0,1,.45-5.61c1.63-2.59,3.18-5.17,4.73-7.82a14.72,14.72,0,0,1,1.42-2,12.28,12.28,0,0,0-8.33,6.33C4,59.2,2.48,61.78.9,64.37A6.21,6.21,0,0,0,.46,70c1,2.88,3.69,4.5,5,7.16,1.48,3,.33,6.27,2.45,9,2.26,3,7.38,5.16,10.68,2.65,1-.73,1.47-2,2.36-2.77a4.86,4.86,0,0,1,.64-.48A10.48,10.48,0,0,1,14.91,81.87Z"/><ellipse class="cls-3" cx="18.69" cy="61.71" rx="4.13" ry="3.72" transform="translate(-24.36 13.71) rotate(-25.04)"/><path class="cls-4" d="M16.47,58.88a3.88,3.88,0,0,1,5.17,1.93,3.78,3.78,0,0,1-1,4.07,3.7,3.7,0,1,0-3.26-6.64,4.47,4.47,0,0,0-1.44.93A5.07,5.07,0,0,1,16.47,58.88Z"/><ellipse class="cls-3" cx="22.74" cy="75.32" rx="3.07" ry="2.76" transform="translate(-49.2 43.47) rotate(-49.32)"/><path class="cls-4" d="M20.38,74.09a2.87,2.87,0,0,1,4.09-.28A2.8,2.8,0,0,1,25,76.89a2.91,2.91,0,0,0-.14-3.78,2.89,2.89,0,0,0-4.1.27,3.48,3.48,0,0,0-.69,1.08A2.69,2.69,0,0,1,20.38,74.09Z"/></g></g></g></svg>