<svg xmlns="http://www.w3.org/2000/svg" viewBox="0 0 114.25 76.76"><defs><style>.cls-1{isolation:isolate;}.cls-2{fill:#726a6a;}.cls-3{fill:#5b5656;}.cls-4{fill:#fff;opacity:0.8;mix-blend-mode:soft-light;}</style></defs><title>Asset 2</title><g class="cls-1"><g id="Layer_2" data-name="Layer 2"><g id="Layer_1-2" data-name="Layer 1"><path class="cls-2" d="M105.48,22.77c-1.14,4.55-5.38,6-6.88,10-1.58,4.15.66,8.52-1,12.8-1.36,3.54-4.37,6.1-7.2,8.47-.4.33-.8.67-1.19,1-2.77,2.44-5.44,5.13-8.5,7.12-3.8,2.45-8.08,2.73-12.48,2.58-6.44-.2-11.09,0-17.09,2.82-6.78,3.14-14.61,2.89-19.54-3.44s-3-13.55-1.86-20.67a45.06,45.06,0,0,0,.52-4.86c.31-7.42-4-10.46-8.12-15.63a11.94,11.94,0,0,1-2.56-8.77c.54-6.48,5.29-10.93,11.77-10.55a1.35,1.35,0,0,1,.94.21C43.89,11.06,56.16,1.66,68.13.49c9.92-1,22-.92,30.86,4.21C105.9,8.68,107.39,15.15,105.48,22.77Z"/><path class="cls-3" d="M96.54,47.36c-2.77,2.44-5.44,5.13-8.5,7.12-3.8,2.45-8.08,2.73-12.48,2.58-6.44-.2-11.09,0-17.09,2.82C51.69,63,43.86,62.77,38.93,56.44s-3-13.55-1.86-20.67a45.06,45.06,0,0,0,.52-4.86c.31-7.42-4-10.46-8.12-15.63a11.94,11.94,0,0,1-2.56-8.77,13.62,13.62,0,0,1,.43-2.45C23,5.32,20,9.12,19.59,14.17a11.94,11.94,0,0,0,2.56,8.77c4.15,5.17,8.43,8.21,8.12,15.63a45.06,45.06,0,0,1-.52,4.86c-1.1,7.12-3.07,14.36,1.86,20.67s12.76,6.58,19.54,3.44c6-2.77,10.65-3,17.09-2.82,4.4.15,8.68-.13,12.48-2.58,3.06-2,5.73-4.68,8.5-7.12.39-.35.79-.69,1.19-1,2.4-2,4.92-4.16,6.46-6.92Z"/><ellipse class="cls-3" cx="37.44" cy="20.71" rx="5.32" ry="6.36" transform="translate(-2.03 37.22) rotate(-51.65)"/><path class="cls-4" d="M33.3,16.26c2.84-1.13,6.51.35,8.21,3.32a5.29,5.29,0,0,1-.25,6.1c2.23-1.38,2.85-4.34,1.32-7-1.69-3-5.37-4.45-8.2-3.32a4.67,4.67,0,0,0-1.83,1.31A5.94,5.94,0,0,1,33.3,16.26Z"/><ellipse class="cls-3" cx="84.84" cy="18.38" rx="6.87" ry="8.33" transform="translate(24.59 80.87) rotate(-58.27)"/><path class="cls-4" d="M79.23,12.8c3.73-1.51,8.63.29,11,4,1.71,2.75,1.53,5.77-.16,7.79,2.91-1.82,3.66-5.6,1.55-9-2.32-3.73-7.22-5.53-11-4a6,6,0,0,0-2.38,1.73A6.16,6.16,0,0,1,79.23,12.8Z"/><ellipse class="cls-3" cx="42.04" cy="57.07" rx="2.27" ry="2.76" transform="translate(-28.61 62.81) rotate(-58.27)"/><path class="cls-4" d="M40.18,55.22a3.11,3.11,0,0,1,3.63,1.33,2.18,2.18,0,0,1-.05,2.58,2.08,2.08,0,0,0,.51-3,3.1,3.1,0,0,0-3.62-1.33,1.94,1.94,0,0,0-.79.57A2,2,0,0,1,40.18,55.22Z"/><ellipse class="cls-3" cx="70.57" cy="38.15" rx="5.79" ry="7.27" transform="translate(-9.49 33.09) rotate(-24.78)"/><path class="cls-4" d="M66.28,32.79c2.85-1.46,6.6.27,8.38,3.87a7.64,7.64,0,0,1-.12,7.5c2.22-1.76,2.8-5.4,1.19-8.65-1.78-3.6-5.53-5.33-8.38-3.87a4.92,4.92,0,0,0-1.82,1.66A4.72,4.72,0,0,1,66.28,32.79Z"/><path class="cls-2" d="M114.24,71.56c-.11,1.79-.41,2.83-1.88,3.89s-3.44,1.8-5.29.87c-.84-.42-1.53-1.53-2.4-1.79s-1.84.2-2.75-.18c-.73-.31-1.18-1-1.81-1.38s-1.14-.2-1.57-.76c-2.14-2.85,3.31-5.49,5.82-6.08h0l.16-.05c.13,0,.26,0,.39,0h0c2.06-.26,4.38,1.1,6.27,1.79S114.39,69.24,114.24,71.56Z"/><path class="cls-3" d="M109.84,73.43c-.84-.42-1.53-1.53-2.4-1.79s-1.84.2-2.75-.18c-.73-.31-1.18-1-1.81-1.38s-1.14-.2-1.57-.76a2.06,2.06,0,0,1-.41-1.78c-2.05,1.16-3.71,2.87-2.36,4.67.43.56,1,.48,1.57.76s1.08,1.07,1.81,1.38c.91.38,1.86-.09,2.75.18s1.56,1.37,2.4,1.79c1.85.93,3.7.26,5.29-.87a3.85,3.85,0,0,0,1.63-2.2A4.41,4.41,0,0,1,109.84,73.43Z"/><path class="cls-2" d="M9.73,41.61a11.67,11.67,0,0,1-6,.14C2.25,41.38.35,41,.07,39.24c-.56-3.61,2.4-6.47,5.7-7h0A3.2,3.2,0,0,1,9,32.14c.77.39,1.17,1.11,1.87,1.56a6.74,6.74,0,0,1,1.81,1.14C15.17,37.67,12.7,40.81,9.73,41.61Z"/><path class="cls-2" d="M3.1,38.49a4.61,4.61,0,0,0,0,.75c-.14-.36-.29-.71-.44-1.06A1.53,1.53,0,0,0,3.1,38.49Z"/><path class="cls-3" d="M12.5,38.72a11.67,11.67,0,0,1-6,.14c-1.47-.37-3.37-.77-3.65-2.51a5.5,5.5,0,0,1,.49-3.26A6,6,0,0,0,.07,39.24C.35,41,2.25,41.38,3.72,41.75a11.67,11.67,0,0,0,6-.14,5.5,5.5,0,0,0,3.79-3.26A6.22,6.22,0,0,1,12.5,38.72Z"/></g></g></g></svg>