<svg xmlns="http://www.w3.org/2000/svg" viewBox="0 0 81.58 80.92"><defs><style>.cls-1{isolation:isolate;}.cls-2{fill:#726a6a;}.cls-3{fill:#5b5656;}.cls-4{fill:#fff;opacity:0.8;mix-blend-mode:soft-light;}</style></defs><title>Asset 1</title><g class="cls-1"><g id="Layer_2" data-name="Layer 2"><g id="Layer_1-2" data-name="Layer 1"><path class="cls-2" d="M76.23,16.85c.06.22.11.45.16.68,1.7,7.62,3,16.57,1.57,24.35C76.7,48.73,70,53.61,64.19,56.51,56.85,60.14,48.13,62.27,40,63.37c-7.71,1.05-12.65-2.71-19-6.42-5.1-3-13.79-2.43-17-8.1-1.44-2.58-1.2-5.6-1.09-8.44a21.72,21.72,0,0,0-1.12-8.8A29.75,29.75,0,0,1,.13,26.46c-1-6.25,4-10.49,9.34-12.53C18,10.63,27.41,10.2,36,6.84l10.57-4.9C54.92-1.42,55.18.24,64.29,2,71.79,3.49,74.64,10.11,76.23,16.85Z"/><path class="cls-3" d="M69.47,42.82c-7.34,3.63-16.06,5.76-24.18,6.86-7.71,1-12.65-2.71-18.95-6.42-5.1-3-13.79-2.43-17-8.1-1.45-2.58-1.21-5.6-1.09-8.44a21.72,21.72,0,0,0-1.12-8.8c-.29-.82-.63-1.61-.94-2.41-3.9,2.34-6.88,6-6.09,11a29.75,29.75,0,0,0,1.75,5.15A21.72,21.72,0,0,1,3,40.41c-.11,2.84-.35,5.86,1.09,8.44C7.27,54.52,16,54,21.06,57c6.31,3.71,11.25,7.47,19,6.42,8.11-1.1,16.83-3.23,24.17-6.86C70,53.61,76.7,48.73,78,41.88a39.21,39.21,0,0,0,.58-5.37A34.64,34.64,0,0,1,69.47,42.82Z"/><ellipse class="cls-3" cx="45.56" cy="18.08" rx="4.17" ry="3.79" transform="translate(1.72 40.01) rotate(-48.22)"/><path class="cls-4" d="M42.24,16.53A4,4,0,0,1,47.85,16a3.81,3.81,0,0,1,.93,4.14A3.93,3.93,0,0,0,48.34,15a4,4,0,0,0-5.6.59,4.42,4.42,0,0,0-.88,1.5A6.42,6.42,0,0,1,42.24,16.53Z"/><ellipse class="cls-3" cx="53.94" cy="42.08" rx="6.89" ry="6.21" transform="translate(-12.5 58.39) rotate(-51.75)"/><path class="cls-4" d="M48.52,39.52c2.52-2.85,6.62-3.3,9.17-1a6.34,6.34,0,0,1,1.5,6.86,6.55,6.55,0,0,0-.69-8.47c-2.54-2.3-6.64-1.86-9.16,1a7.38,7.38,0,0,0-1.45,2.48A7.37,7.37,0,0,1,48.52,39.52Z"/><ellipse class="cls-3" cx="16.66" cy="36.01" rx="5.16" ry="4.65" transform="translate(-21.93 26.79) rotate(-51.75)"/><path class="cls-4" d="M12.6,34.1a4.85,4.85,0,0,1,6.86-.75,4.73,4.73,0,0,1,1.12,5.13,4.9,4.9,0,0,0-.51-6.34,4.85,4.85,0,0,0-6.86.75,5.52,5.52,0,0,0-1.09,1.86A5,5,0,0,1,12.6,34.1Z"/><path class="cls-2" d="M79.77,79.69C78.4,81,76.82,81,75,80.8a6.06,6.06,0,0,1-4.33-2.37A12.13,12.13,0,0,0,68.1,76a3.52,3.52,0,0,1-1.31-1.71c-1.12-3.47,3.37-6.46,6.38-6.09h0a1.47,1.47,0,0,1,.74.21A17,17,0,0,1,77,70.69c1.54,1.34,3.81,2,4.43,4.16A5.09,5.09,0,0,1,79.77,79.69Z"/><path class="cls-3" d="M77.79,77.91a6.06,6.06,0,0,1-4.33-2.37,12.13,12.13,0,0,0-2.58-2.43A3.39,3.39,0,0,1,69.65,69c-2,1.08-3.57,3.09-2.86,5.3A3.52,3.52,0,0,0,68.1,76a12.13,12.13,0,0,1,2.58,2.43A6.06,6.06,0,0,0,75,80.8c1.81.24,3.39.23,4.76-1.11a6.71,6.71,0,0,0,1.38-2A6.71,6.71,0,0,1,77.79,77.91Z"/></g></g></g></svg>