<svg xmlns="http://www.w3.org/2000/svg" viewBox="0 0 97.62 68.82"><defs><style>.cls-1{isolation:isolate;}.cls-2{fill:#726a6a;}.cls-3{fill:#5b5656;}.cls-4{fill:#fff;opacity:0.8;mix-blend-mode:soft-light;}</style></defs><title>Asset 3</title><g class="cls-1"><g id="Layer_2" data-name="Layer 2"><g id="Layer_1-2" data-name="Layer 1"><path class="cls-2" d="M95.55,42.09c-1.83,6.49-4.13,15.46-10.94,18.44-3.85,1.69-8.14,1-12.17,1.8s-5.56,3.92-8.95,5.47c-4,1.83-9.8.72-14,.32S40.91,67.41,37,66c-4.14-1.46-6.38-5.1-9.75-7.69C24.79,56.42,23,55,22.4,51.74c-.87-4.4-.63-8.68-1.9-13.08-1-3.6-2.05-7.22-.77-10.9,2.46-7,10.2-8.86,16.81-9.68,1.42-2.65,4-4.55,6.55-6.07C48,9.09,53.13,6.6,58.15,4,65.27.24,72.88-2.23,80,3a16.12,16.12,0,0,1,4.22,4.49c.91,1.47,1.28,3.57,2.39,4.87,2.36,2.74,5.81,1.38,7.9,4.5C99.27,23.9,97.69,34.46,95.55,42.09Z"/><path class="cls-3" d="M91.58,52.7c-3.85,1.69-8.14,1-12.17,1.8s-5.56,3.92-9,5.47c-4,1.83-9.8.72-14,.32S47.88,59.58,44,58.21c-4.14-1.46-6.38-5.1-9.75-7.69-2.5-1.93-4.25-3.34-4.89-6.61-.87-4.4-.63-8.68-1.9-13.08-1-3.37-1.89-6.76-1-10.21a12.34,12.34,0,0,0-6.78,7.14c-1.28,3.68-.26,7.3.77,10.9,1.27,4.4,1,8.68,1.9,13.08.64,3.27,2.39,4.68,4.89,6.61C30.66,60.94,32.9,64.58,37,66c3.87,1.37,8.36,1.68,12.44,2.08s10,1.51,14-.32c3.39-1.55,5-4.68,8.95-5.47s8.32-.11,12.17-1.8c3.45-1.51,5.74-4.56,7.4-8C91.86,52.56,91.73,52.64,91.58,52.7Z"/><ellipse class="cls-3" cx="59.85" cy="55.83" rx="6.87" ry="8.33" transform="translate(-1.34 110.18) rotate(-84.63)"/><path class="cls-4" d="M52.35,53.32c2.66-3,7.86-3.58,11.6-1.26a6.54,6.54,0,0,1,3.31,7c1.8-2.93.79-6.65-2.59-8.74-3.74-2.32-8.93-1.75-11.6,1.26a6.25,6.25,0,0,0-1.37,2.6A6.91,6.91,0,0,1,52.35,53.32Z"/><ellipse class="cls-3" cx="65.05" cy="20.62" rx="4.88" ry="6.83" transform="translate(26.34 76.82) rotate(-73.03)"/><path class="cls-4" d="M59.48,17.44c2.62-1.56,6.86-1,9.46,1.38,1.91,1.71,2.4,3.86,1.48,5.51,1.92-1.67,1.72-4.44-.63-6.54-2.6-2.32-6.83-2.94-9.45-1.38A4.22,4.22,0,0,0,58.82,18,4.28,4.28,0,0,1,59.48,17.44Z"/><ellipse class="cls-3" cx="32.87" cy="31.93" rx="4.46" ry="6.62" transform="translate(-11.04 45.06) rotate(-60.81)"/><path class="cls-4" d="M28.79,27.52a9,9,0,0,1,8.36,4.17c1.19,2,.88,4-.55,5,2.38-.76,3.17-3.11,1.71-5.6A9,9,0,0,0,30,26.94a4.35,4.35,0,0,0-2,.78A4.68,4.68,0,0,1,28.79,27.52Z"/><path class="cls-2" d="M14.49,11.57a4.71,4.71,0,0,1-4.1,3.25c-1.67.27-3.35.25-5,.53a5.46,5.46,0,0,1-2.81-.06A3.31,3.31,0,0,1,.65,10.8a6.69,6.69,0,0,1,.81-1.36c.27-.36-.28-.69-.52-1C.35,7.59.67,7.54.23,6.44c-.87-2.12.85-3.77,2.55-4.66L3,1.68l.18-.08A5.77,5.77,0,0,1,4.59,1c1.2-.24,2.84.55,3.95.93,1.81.61,5,1.32,6,3.18C15.38,6.65,14.94,9.87,14.49,11.57Z"/><path class="cls-3" d="M13.17,11.93c-1.67.27-3.35.25-5,.53a5.46,5.46,0,0,1-2.81-.06,3.31,3.31,0,0,1-1.9-4.49,6.69,6.69,0,0,1,.81-1.36c.27-.36-.28-.69-.53-1-.59-.8-.26-.85-.7-1.95a2.77,2.77,0,0,1-.14-1.82l-.09.05C1.08,2.67-.64,4.32.23,6.44c.44,1.1.12,1.15.71,2,.24.36.79.69.52,1A6.69,6.69,0,0,0,.65,10.8a3.31,3.31,0,0,0,1.9,4.49,5.46,5.46,0,0,0,2.81.06c1.68-.28,3.36-.26,5-.53a4.72,4.72,0,0,0,4.1-3.24A6.58,6.58,0,0,1,13.17,11.93Z"/></g></g></g></svg>