<svg xmlns="http://www.w3.org/2000/svg" xmlns:xlink="http://www.w3.org/1999/xlink" viewBox="0 0 116 94"><defs><style>.cls-1{fill:none;}.cls-2{isolation:isolate;}.cls-3{fill:#656370;}.cls-4{clip-path:url(#clip-path);}.cls-5{opacity:0.1;}.cls-6{fill:#d8ca8b;}.cls-12,.cls-7{fill:#fff;mix-blend-mode:soft-light;}.cls-7{opacity:0.8;}.cls-8{clip-path:url(#clip-path-2);}.cls-9{fill:#78d2ea;}.cls-10{clip-path:url(#clip-path-3);}.cls-11{fill:#80e5c8;}.cls-13{clip-path:url(#clip-path-4);}.cls-14{fill:#c1c1c6;}.cls-15{fill:#a0a0a8;}</style><clipPath id="clip-path"><rect class="cls-1" x="23.98" y="80" width="76" height="14" rx="7"/></clipPath><clipPath id="clip-path-2"><path class="cls-1" d="M21,14H13A7,7,0,0,1,6,7H6a7,7,0,0,1,7-7h8a7,7,0,0,1,7,7h0A7,7,0,0,1,21,14Zm88,26h-7a3,3,0,0,1,0-6h1a7,7,0,1,0,0-14H92a3,3,0,0,1,0-6h1A7,7,0,0,0,93,0H39a7,7,0,1,0,0,14h1a3,3,0,0,1,0,6H7A7,7,0,0,0,7,34H22a3,3,0,1,1,0,6H15a7,7,0,0,0,0,14h94a7,7,0,1,0,0-14ZM93,80H83a3,3,0,0,1,0-6,7,7,0,1,0,0-14H7A7,7,0,0,0,7,74H37a3,3,0,0,1,0,6H31a7,7,0,0,0,0,14H93a7,7,0,1,0,0-14Zm19-13h0a7,7,0,0,0-7-7h-4a7,7,0,0,0-7,7h0a7,7,0,0,0,7,7h4A7,7,0,0,0,112,67Z"/></clipPath><clipPath id="clip-path-3"><circle class="cls-1" cx="57.98" cy="47" r="34"/></clipPath><clipPath id="clip-path-4"><rect class="cls-1" x="5.98" width="22" height="14" rx="7"/></clipPath></defs><title>Artboard 5</title><g class="cls-2"><g id="Earth"><rect class="cls-3" x="5.98" width="22" height="14" rx="7"/><path class="cls-3" d="M116,47a7,7,0,0,1-7,7H15a7,7,0,0,1,0-14h7a3,3,0,1,0,0-6H7A7,7,0,0,1,7,20H40a3,3,0,0,0,0-6H39A7,7,0,0,1,39,0H93a7,7,0,0,1,0,14H92a3,3,0,0,0,0,6h11a7,7,0,0,1,0,14h-1a3,3,0,0,0,0,6h7A7,7,0,0,1,116,47Z"/><path class="cls-3" d="M100,87a7,7,0,0,1-7,7H31a7,7,0,0,1,0-14h6a3,3,0,0,0,0-6H7A7,7,0,0,1,7,60H83a7,7,0,0,1,0,14,3,3,0,0,0,0,6H93A7,7,0,0,1,100,87Z"/><rect class="cls-3" x="93.98" y="60" width="18" height="14" rx="7"/><rect class="cls-1" x="5.98" width="22" height="14" rx="7"/><g class="cls-4"><circle class="cls-5" cx="103.98" cy="93" r="16"/><circle class="cls-6" cx="103.98" cy="93" r="12"/><path class="cls-7" d="M104,81a12,12,0,1,0,12,12A12,12,0,0,0,104,81Zm0,22a10,10,0,1,1,10-10A10,10,0,0,1,104,103Z"/></g><g class="cls-8"><circle class="cls-5" cx="57.98" cy="47" r="46"/><circle class="cls-5" cx="57.98" cy="47" r="42"/><circle class="cls-5" cx="57.98" cy="47" r="38"/></g><circle class="cls-9" cx="57.98" cy="47" r="34"/><g class="cls-10"><path class="cls-11" d="M92.73,43.19c.64,4.27,1.2,8.76.15,13-1.21,4.92-5,7.95-7.61,12.19a1.45,1.45,0,0,1-1.09.72,15,15,0,0,0-1-3.34c2.23-3.18,5.21-5.82,6.36-9.61,1.31-4.41.56-9.38-.21-13.81-1.66-9.49-7.37-15.63-14.55-22.1a1.27,1.27,0,0,1-.41-.61c1.11-.35,2.24-.66,3.37-1C85.57,25.83,91.14,32.73,92.73,43.19Z"/><path class="cls-11" d="M89.3,42.36c.77,4.43,1.52,9.4.21,13.81-1.15,3.79-4.13,6.43-6.36,9.61A15,15,0,0,0,78,59.47c-2.46-1.71-5.09-2.32-8-3.15A42.39,42.39,0,0,1,58,51c-8.91-6-3.41-18.28,3-24.32,3.65-3.45,8.37-5.5,13.31-7a1.27,1.27,0,0,0,.41.61C81.93,26.73,87.64,32.87,89.3,42.36Z"/><path class="cls-11" d="M84.18,69.12a15.5,15.5,0,0,1,.26,3.41c0,2-3.33,2-3.27,0,.15-5.67-3.11-10.44-8.88-12.43-4.13-1.41-8.07-2.25-12-4.28-6.41-3.32-11.09-7.25-10.23-14.6C52,24.88,66.68,18.14,81.86,14.52c2-.49,2.91,2.45.87,2.94-1.65.4-3.33.79-5,1.23l-.65-.59a1.65,1.65,0,0,0-2.72,1.55c-4.94,1.48-9.66,3.53-13.31,7-6.4,6-11.9,18.28-3,24.32A42.39,42.39,0,0,0,70,56.32c2.89.83,5.52,1.44,8,3.15a15,15,0,0,1,5.18,6.31,12.28,12.28,0,0,0-.7,1.07C81.67,68.11,83,69.28,84.18,69.12Z"/><path class="cls-11" d="M84.18,69.12c-1.17.16-2.51-1-1.73-2.27a12.28,12.28,0,0,1,.7-1.07A15,15,0,0,1,84.18,69.12Z"/><path class="cls-11" d="M77.06,18.1l.65.59c-1.13.3-2.26.61-3.37,1A1.65,1.65,0,0,1,77.06,18.1Z"/><path class="cls-11" d="M39.05,50.66a32.8,32.8,0,0,1-2.33,20.83,1.26,1.26,0,0,1-.79.71,1.41,1.41,0,0,0-.59-1.81c-.37-.22-.73-.46-1.08-.71a29.26,29.26,0,0,0,1.5-19.77c-1.41-4.76-4.89-8.19-8.59-11.27.09-.37.18-.73.28-1.08a1.51,1.51,0,0,0-2.82-1c-1.07-1.21.91-3,2.33-1.91C32.39,39,37.51,43.6,39.05,50.66Z"/><path class="cls-11" d="M35.76,49.91a29.26,29.26,0,0,1-1.5,19.77c-9.17-6.55-9.63-20.86-7.09-31C30.87,41.72,34.35,45.15,35.76,49.91Z"/><path class="cls-11" d="M35.34,70.39a1.41,1.41,0,0,1,.59,1.81A1.6,1.6,0,0,1,34.13,70c0-.1.09-.19.13-.29C34.61,69.93,35,70.17,35.34,70.39Z"/><path class="cls-11" d="M34.13,70a1.6,1.6,0,0,0,1.8,2.23,1.42,1.42,0,0,1-2.11.78C22,65.84,21.21,48.76,24.56,36.76a1.29,1.29,0,0,1,.07-.21,1,1,0,0,0,.21.21l2.33,1.88c-2.54,10.18-2.08,24.49,7.09,31C34.22,69.78,34.18,69.87,34.13,70Z"/><path class="cls-11" d="M24.63,36.55a1.51,1.51,0,0,1,2.82,1c-.1.35-.19.71-.28,1.08l-2.33-1.88A1,1,0,0,1,24.63,36.55Z"/></g><path class="cls-7" d="M58,13A34,34,0,1,0,92,47,34,34,0,0,0,58,13Zm0,66A32,32,0,1,1,90,47,32,32,0,0,1,58,79Z"/><path class="cls-12" d="M50,28.5a1.5,1.5,0,0,1-1.5,1.5h-25a1.5,1.5,0,0,1,0-3H38a1,1,0,0,0,0-2h-1.5a1.5,1.5,0,0,1,0-3h11a1.5,1.5,0,0,1,0,3H47a1,1,0,1,0,0,2h1.5A1.5,1.5,0,0,1,50,28.5Z"/><rect class="cls-12" x="50.98" y="22" width="5" height="3" rx="1.5"/><path class="cls-12" d="M87,46.5a1.5,1.5,0,0,1-1.5,1.5h-20a1.5,1.5,0,0,1,0-3H66a1,1,0,0,0,0-2h-.5A3.5,3.5,0,0,1,62,39.5a3.52,3.52,0,0,1,3.5-3.5h11A3.5,3.5,0,0,1,80,39.5a3.52,3.52,0,0,1-3.5,3.5H72a1,1,0,0,0,0,2h13.5A1.5,1.5,0,0,1,87,46.5Z"/><rect class="cls-12" x="29.98" y="50" width="15" height="3" rx="1.5"/><rect class="cls-12" x="48.98" y="50" width="7" height="3" rx="1.5"/><path class="cls-12" d="M68,78.5A1.43,1.43,0,0,1,66.62,80H41.33a1.51,1.51,0,0,1,0-3H45.4a1,1,0,0,0,0-2H45a5.26,5.26,0,0,1-5-5.5,5.84,5.84,0,0,1,1.45-3.89A4.76,4.76,0,0,1,45,64h8.13a5.26,5.26,0,0,1,5,5.5,5.84,5.84,0,0,1-1.45,3.89A4.74,4.74,0,0,1,53.08,75H50.82a1,1,0,0,0,0,2h15.8A1.43,1.43,0,0,1,68,78.5Z"/><rect class="cls-12" x="69.98" y="77" width="5" height="3" rx="1.5"/><g class="cls-13"><circle class="cls-5" cx="7.98" cy="2" r="12"/><circle class="cls-14" cx="7.98" cy="2" r="8"/><path class="cls-7" d="M8-6a8,8,0,1,0,8,8A8,8,0,0,0,8-6ZM8,8a6,6,0,1,1,6-6A6,6,0,0,1,8,8Z"/><circle class="cls-15" cx="11.98" cy="3" r="1"/></g></g></g></svg>