<svg xmlns="http://www.w3.org/2000/svg" xmlns:xlink="http://www.w3.org/1999/xlink" viewBox="0 0 116 94"><defs><style>.cls-1{fill:none;}.cls-2{isolation:isolate;}.cls-3{fill:#656370;}.cls-4{clip-path:url(#clip-path);}.cls-5{opacity:0.1;}.cls-6{fill:#ea7d7d;}.cls-7{fill:#fff;opacity:0.8;mix-blend-mode:soft-light;}.cls-8{clip-path:url(#clip-path-2);}.cls-9{fill:#e27959;}.cls-10{clip-path:url(#clip-path-3);}.cls-11{fill:#ff9b73;}.cls-12{fill:#d3674f;}.cls-13{clip-path:url(#clip-path-4);}.cls-14{fill:#d8ca8b;}.cls-15{clip-path:url(#clip-path-5);}.cls-16{fill:#bcaf75;}</style><clipPath id="clip-path"><rect class="cls-1" x="6.02" width="22.06" height="14" rx="7"/></clipPath><clipPath id="clip-path-2"><path class="cls-1" d="M21.08,14H13A7,7,0,0,1,6,7H6a7,7,0,0,1,7-7h8.06a7,7,0,0,1,7,7h0A7,7,0,0,1,21.08,14Zm88.24,26h-7a3,3,0,1,1,0-6h1a7,7,0,1,0,0-14h-11a3,3,0,1,1,0-6h1a7,7,0,1,0,0-14H39.11a7,7,0,1,0,0,14h1a3,3,0,0,1,0,6H7A7,7,0,1,0,7,34h15a3,3,0,1,1,0,6H15a7,7,0,1,0,0,14h94.28a7,7,0,1,0,0-14Zm-16,40h-10a3,3,0,1,1,0-6,7,7,0,1,0,0-14H7A7,7,0,1,0,7,74H37.11a3,3,0,1,1,0,6h-6a7,7,0,1,0,0,14H93.27a7,7,0,1,0,0-14Zm19.06-13h0a7,7,0,0,0-7-7h-4a7,7,0,0,0-7,7h0a7,7,0,0,0,7,7h4A7,7,0,0,0,112.33,67Z"/></clipPath><clipPath id="clip-path-3"><ellipse class="cls-1" cx="58.17" cy="47" rx="34.1" ry="34"/></clipPath><clipPath id="clip-path-4"><path class="cls-1" d="M100.29,87a7,7,0,0,1-7,7H31.09a7,7,0,0,1-7-7,7,7,0,0,1,7-7h6a3,3,0,1,0,0-6H7a7,7,0,0,1-7-7,7,7,0,0,1,7-7H83.24a7,7,0,0,1,7,7,7,7,0,0,1-7,7,3,3,0,1,0,0,6h10A7,7,0,0,1,100.29,87Z"/></clipPath><clipPath id="clip-path-5"><ellipse class="cls-1" cx="104.31" cy="93" rx="12.04" ry="12"/></clipPath></defs><title>Artboard 7</title><g class="cls-2"><g id="Jupiter"><rect class="cls-3" x="6.02" width="22.06" height="14" rx="7"/><path class="cls-3" d="M116.34,47a7.05,7.05,0,0,1-7,7H15a7,7,0,0,1-7-7,7.05,7.05,0,0,1,7-7h7a3,3,0,1,0,0-6H7a7,7,0,0,1-7-7,7,7,0,0,1,7-7h33.1a3,3,0,0,0,0-6h-1a7,7,0,0,1-7-7,7.05,7.05,0,0,1,7-7H93.27a7,7,0,0,1,7,7,7,7,0,0,1-7,7h-1a3,3,0,1,0,0,6h11a7,7,0,0,1,7,7,7,7,0,0,1-7,7h-1a3,3,0,1,0,0,6h7A7,7,0,0,1,116.34,47Z"/><path class="cls-3" d="M100.29,87a7,7,0,0,1-7,7H31.09a7,7,0,0,1-7-7,7,7,0,0,1,7-7h6a3,3,0,1,0,0-6H7a7,7,0,0,1-7-7,7,7,0,0,1,7-7H83.24a7,7,0,0,1,7,7,7,7,0,0,1-7,7,3,3,0,1,0,0,6h10A7,7,0,0,1,100.29,87Z"/><rect class="cls-3" x="94.28" y="60" width="18.05" height="14" rx="7"/><g class="cls-4"><ellipse class="cls-5" cx="8.02" cy="2" rx="12.04" ry="12"/><ellipse class="cls-6" cx="8.02" cy="2" rx="8.02" ry="8"/><path class="cls-7" d="M8-6A8,8,0,1,0,8,10a8,8,0,0,0,8-8A8,8,0,0,0,8-6ZM8,8A6,6,0,0,1,2,2,6,6,0,0,1,14,2,6,6,0,0,1,8,8Z"/></g><rect class="cls-1" x="6.02" width="22.06" height="14" rx="7"/><rect class="cls-1" x="24.07" y="80" width="76.22" height="14" rx="7"/><g class="cls-8"><ellipse class="cls-5" cx="58.17" cy="47" rx="46.14" ry="46"/><ellipse class="cls-5" cx="58.17" cy="47" rx="42.12" ry="42"/><ellipse class="cls-5" cx="58.17" cy="47" rx="38.11" ry="38"/></g><ellipse class="cls-9" cx="58.17" cy="47" rx="34.1" ry="34"/><g class="cls-10"><path class="cls-11" d="M18.33,40.69l2.34-8.14.32,0c20.85-3,29.08-3,29.16-3h2.5V30a3,3,0,0,1-2.33,3Z"/><path class="cls-11" d="M22.06,44c.64-2,4.15-2.35,8-3,9.32-1.57,8.14-2.63,17.05-4a57.27,57.27,0,0,1,14-1c5.52.32,6.08,1.15,11,1,3.7-.11,4.25-.6,11-1a49.15,49.15,0,0,1,8,0c3,.28,4.55.34,6,1,4.32,1.93,6.93,7,6,8-.41.48-1.38-.07-10-3-1.82-.62-2.73-.93-3-1-4.3-1.14-7.63-.54-12,0a119.21,119.21,0,0,1-12,1c-5.69.1-5.93-.72-12-1a42.53,42.53,0,0,0-17,3c-5.32,2.65-11.95,4.49-14,3A2.86,2.86,0,0,1,22.06,44Z"/><path class="cls-11" d="M92.49,49.91l-4.25-.47a42.76,42.76,0,0,0-8-.13l-9,.69v1H77a63.15,63.15,0,0,1,12.41,1.23l3.88.77V50.79A.89.89,0,0,0,92.49,49.91Z"/><path class="cls-11" d="M91.27,60h-12l-8.71.58A32.32,32.32,0,0,1,58.17,59h0a47.19,47.19,0,0,0-7-3c-6-2-7-1-8-1a9.17,9.17,0,0,0-2.55,1.06,13.47,13.47,0,0,0-5.31,5l-.38.63a2.72,2.72,0,0,0-.1,2.65h0A13.19,13.19,0,0,0,42,70.82h0a13.87,13.87,0,0,0,6.48.8l18.81-2.17A53.75,53.75,0,0,0,75,68L80.6,66.5A41.42,41.42,0,0,0,91.27,62h0Z"/><path class="cls-12" d="M23.07,55l6.32-2.1A37.09,37.09,0,0,1,41.12,51h0v1l-2.34.78a71.77,71.77,0,0,0-7.21,2.82L24.07,59Z"/><path class="cls-12" d="M96.28,56H89a38.85,38.85,0,0,0-5.39.38L79.23,57v1h0a26,26,0,0,1,9.67,1.86h0c.24.09.48.2.71.31L93.27,62Z"/></g><ellipse class="cls-1" cx="58.17" cy="47" rx="34.1" ry="34"/><ellipse class="cls-12" cx="52.65" cy="36" rx="4.51" ry="2"/><ellipse class="cls-12" cx="65.69" cy="40" rx="2.51" ry="1"/><ellipse class="cls-12" cx="49.14" cy="63" rx="7.02" ry="3"/><ellipse class="cls-11" cx="78.23" cy="46.5" rx="4.01" ry="1.5"/><ellipse class="cls-11" cx="61.68" cy="75.5" rx="3.51" ry="1.5"/><ellipse class="cls-11" cx="60.18" cy="21.5" rx="8.02" ry="2.5"/><path class="cls-7" d="M58.17,13a34,34,0,1,0,34.1,34A34.05,34.05,0,0,0,58.17,13Zm0,66A32,32,0,1,1,90.26,47,32.09,32.09,0,0,1,58.17,79Z"/><g class="cls-13"><ellipse class="cls-5" cx="104.31" cy="93" rx="16.05" ry="16"/><ellipse class="cls-14" cx="104.31" cy="93" rx="12.04" ry="12"/><g class="cls-15"><path class="cls-16" d="M86.25,95.2q13.14-3.77,26.2-7.74c1.85-.56,1.06-3.46-.8-2.89q-13.07,4-26.2,7.74a1.5,1.5,0,0,0,.8,2.89Z"/></g><path class="cls-7" d="M104.31,81a12,12,0,1,0,12,12A12,12,0,0,0,104.31,81Zm0,22a10,10,0,1,1,10-10A10,10,0,0,1,104.31,103Z"/></g></g></g></svg>