<svg xmlns="http://www.w3.org/2000/svg" xmlns:xlink="http://www.w3.org/1999/xlink" viewBox="0 0 116 94"><defs><style>.cls-1{fill:none;}.cls-2{isolation:isolate;}.cls-3{fill:#656370;}.cls-4{clip-path:url(#clip-path);}.cls-5{opacity:0.1;}.cls-6{fill:#ea7d7d;}.cls-7{fill:#bf6262;}.cls-8{clip-path:url(#clip-path-2);}.cls-10,.cls-9{fill:#fff;}.cls-10{opacity:0.8;mix-blend-mode:soft-light;}.cls-11{clip-path:url(#clip-path-3);}.cls-12{fill:#78d2ea;}.cls-13{clip-path:url(#clip-path-4);}.cls-14{fill:#80e5c8;}.cls-15{clip-path:url(#clip-path-5);}.cls-16{fill:#e27959;}.cls-17{fill:#d3674f;}</style><clipPath id="clip-path"><path class="cls-1" d="M21,94H13a7,7,0,0,1-7-7H6a7,7,0,0,1,7-7h8a7,7,0,0,1,7,7h0A7,7,0,0,1,21,94Zm95-47a7,7,0,0,0-7-7H15a7,7,0,0,0,0,14h7a3,3,0,0,1,0,6H7A7,7,0,0,0,7,74H40a3,3,0,1,1,0,6H39a7,7,0,0,0,0,14H93a7,7,0,0,0,0-14H92a3,3,0,1,1,0-6h11a7,7,0,0,0,0-14h-1a3,3,0,1,1,0-6h7A7,7,0,0,0,116,47ZM100,7a7,7,0,0,0-7-7H31a7,7,0,0,0,0,14h6a3,3,0,0,1,0,6H7A7,7,0,0,0,7,34H83a7,7,0,0,0,0-14,3,3,0,0,1,0-6H93A7,7,0,0,0,100,7ZM94,27h0a7,7,0,0,0,7,7h4a7,7,0,0,0,7-7h0a7,7,0,0,0-7-7h-4A7,7,0,0,0,94,27Z"/></clipPath><clipPath id="clip-path-2"><circle class="cls-1" cx="58.02" cy="47" r="34"/></clipPath><clipPath id="clip-path-3"><path class="cls-1" d="M100,7a7,7,0,0,1-3.21,5.87A6.84,6.84,0,0,1,94,13.92,5.37,5.37,0,0,1,93,14H83a3,3,0,0,0,0,6,7,7,0,0,1,0,14H7A7,7,0,0,1,7,20H37a3,3,0,0,0,0-6H31A7,7,0,1,1,31,0H93a5.55,5.55,0,0,1,1,.08,7,7,0,0,1,3.94,2,8.26,8.26,0,0,1,.85,1h0A7,7,0,0,1,100,7Z"/></clipPath><clipPath id="clip-path-4"><circle class="cls-1" cx="104.02" cy="1" r="12"/></clipPath><clipPath id="clip-path-5"><rect class="cls-1" x="6.02" y="80" width="22" height="14" rx="7"/></clipPath></defs><title>Artboard 6</title><g class="cls-2"><g id="Mars"><rect class="cls-3" x="6.02" y="80" width="22" height="14" rx="7"/><path class="cls-3" d="M116,47a7,7,0,0,0-7-7H15a7,7,0,0,0,0,14h7a3,3,0,0,1,0,6H7A7,7,0,0,0,7,74H40a3,3,0,1,1,0,6H39a7,7,0,0,0,0,14H93a7,7,0,0,0,0-14H92a3,3,0,1,1,0-6h11a7,7,0,0,0,0-14h-1a3,3,0,1,1,0-6h7A7,7,0,0,0,116,47Z"/><path class="cls-3" d="M100,7a7,7,0,0,0-7-7H31a7,7,0,0,0,0,14h6a3,3,0,0,1,0,6H7A7,7,0,0,0,7,34H83a7,7,0,0,0,0-14,3,3,0,0,1,0-6H93A7,7,0,0,0,100,7Z"/><rect class="cls-3" x="94.02" y="20" width="18" height="14" rx="7"/><rect class="cls-1" x="6.02" y="80" width="22" height="14" rx="7"/><g class="cls-4"><circle class="cls-5" cx="58.02" cy="47" r="46"/><circle class="cls-5" cx="58.02" cy="47" r="42"/><circle class="cls-5" cx="58.02" cy="47" r="38"/></g><circle class="cls-6" cx="58.02" cy="47" r="34"/><circle class="cls-7" cx="53.52" cy="28.5" r="2.5"/><ellipse class="cls-7" cx="72.52" cy="39.5" rx="4.5" ry="2.5"/><circle class="cls-7" cx="80.02" cy="50" r="1"/><ellipse class="cls-7" cx="50.02" cy="57" rx="11" ry="7"/><ellipse class="cls-7" cx="59.52" cy="69" rx="2.5" ry="1"/><g class="cls-8"><ellipse class="cls-9" cx="57.02" cy="14" rx="9" ry="3"/></g><path class="cls-10" d="M58,13A34,34,0,1,0,92,47,34,34,0,0,0,58,13Zm0,66A32,32,0,1,1,90,47,32,32,0,0,1,58,79Z"/><g class="cls-11"><circle class="cls-5" cx="104.02" cy="1" r="16"/><circle class="cls-12" cx="104.02" cy="1" r="12"/><g class="cls-13"><ellipse class="cls-14" cx="95.2" cy="-2.07" rx="8.5" ry="6" transform="translate(42.67 77.35) rotate(-55.27)"/></g><path class="cls-10" d="M113.88,7.84a12,12,0,1,0-16.7,3A12,12,0,0,0,113.88,7.84ZM112.24,6.7A10,10,0,0,1,98.32,9.22,10,10,0,0,1,95.8-4.7a10,10,0,0,1,13.92-2.52A10,10,0,0,1,112.24,6.7Z"/></g><g class="cls-15"><circle class="cls-5" cx="8.02" cy="92" r="12"/><circle class="cls-16" cx="8.02" cy="92" r="8"/><path class="cls-10" d="M16,92a8,8,0,1,0-8,8A8,8,0,0,0,16,92Zm-2,0a6,6,0,1,1-6-6A6,6,0,0,1,14,92Z"/><ellipse class="cls-17" cx="10.02" cy="92.5" rx="2" ry="1.5"/></g></g></g></svg>