<svg xmlns="http://www.w3.org/2000/svg" xmlns:xlink="http://www.w3.org/1999/xlink" viewBox="0 0 124 119"><defs><style>.cls-1{fill:none;}.cls-2{isolation:isolate;}.cls-3{fill:#656370;}.cls-4{clip-path:url(#clip-path);}.cls-5{opacity:0.1;}.cls-6{fill:#e2d388;}.cls-12,.cls-7{fill:#fff;mix-blend-mode:soft-light;}.cls-7{opacity:0.8;}.cls-8{clip-path:url(#clip-path-2);}.cls-9{fill:#d8ca8b;}.cls-10{clip-path:url(#clip-path-3);}.cls-11{fill:#d0d0d8;}.cls-12{opacity:0.68;}.cls-13{fill:#aaaab2;}</style><clipPath id="clip-path"><rect class="cls-1" x="10" y="10" width="22" height="14" rx="7"/></clipPath><clipPath id="clip-path-2"><rect class="cls-1" x="28" y="90" width="76" height="14" rx="7"/></clipPath><clipPath id="clip-path-3"><path class="cls-1" d="M25,24H17a7,7,0,0,1-7-7h0a7,7,0,0,1,7-7h8a7,7,0,0,1,7,7h0A7,7,0,0,1,25,24Zm88,26h-7a3,3,0,0,1,0-6h1a7,7,0,0,0,0-14H96a3,3,0,0,1,0-6h1a7,7,0,0,0,0-14H43a7,7,0,0,0,0,14h1a3,3,0,0,1,0,6H11a7,7,0,0,0,0,14H26a3,3,0,0,1,0,6H19a7,7,0,0,0,0,14h94a7,7,0,0,0,0-14ZM97,90H87a3,3,0,0,1,0-6,7,7,0,0,0,0-14H11a7,7,0,0,0,0,14H41a3,3,0,0,1,0,6H35a7,7,0,0,0,0,14H97a7,7,0,0,0,0-14Zm19-13h0a7,7,0,0,0-7-7h-4a7,7,0,0,0-7,7h0a7,7,0,0,0,7,7h4A7,7,0,0,0,116,77Z"/></clipPath></defs><title>Asset 28</title><g class="cls-2"><g id="Layer_2" data-name="Layer 2"><g id="Mercury"><rect class="cls-3" x="10" y="10" width="22" height="14" rx="7"/><path class="cls-3" d="M120,57a7,7,0,0,1-7,7H19a7,7,0,0,1,0-14h7a3,3,0,0,0,0-6H11a7,7,0,0,1,0-14H44a3,3,0,0,0,0-6H43a7,7,0,0,1,0-14H97a7,7,0,0,1,0,14H96a3,3,0,0,0,0,6h11a7,7,0,0,1,0,14h-1a3,3,0,0,0,0,6h7A7,7,0,0,1,120,57Z"/><path class="cls-3" d="M104,97a7,7,0,0,1-7,7H35a7,7,0,0,1,0-14h6a3,3,0,0,0,0-6H11a7,7,0,0,1,0-14H87a7,7,0,0,1,0,14,3,3,0,0,0,0,6H97A7,7,0,0,1,104,97Z"/><rect class="cls-3" x="98" y="70" width="18" height="14" rx="7"/><g class="cls-4"><circle class="cls-5" cx="12" cy="12" r="12"/><circle class="cls-6" cx="12" cy="12" r="8"/><path class="cls-7" d="M12,4a8,8,0,1,0,8,8A8,8,0,0,0,12,4Zm0,14a6,6,0,1,1,6-6A6,6,0,0,1,12,18Z"/></g><g class="cls-8"><circle class="cls-5" cx="108" cy="103" r="16"/><circle class="cls-9" cx="108" cy="103" r="12"/><path class="cls-7" d="M108,91a12,12,0,1,0,12,12A12,12,0,0,0,108,91Zm0,22a10,10,0,1,1,10-10A10,10,0,0,1,108,113Z"/></g><g class="cls-10"><circle class="cls-5" cx="62" cy="57" r="46"/><circle class="cls-5" cx="62" cy="57" r="42"/><circle class="cls-5" cx="62" cy="57" r="38"/></g><circle class="cls-11" cx="62" cy="57" r="34"/><path class="cls-12" d="M62,23A34,34,0,1,0,96,57,34,34,0,0,0,62,23Zm0,66A32,32,0,1,1,94,57,32,32,0,0,1,62,89Z"/><circle class="cls-13" cx="61.5" cy="48.5" r="1.5"/><circle class="cls-13" cx="75" cy="62" r="2"/><circle class="cls-13" cx="43" cy="65" r="1"/><circle class="cls-13" cx="43" cy="46" r="2"/><circle class="cls-13" cx="80.5" cy="44.5" r="1.5"/><circle class="cls-13" cx="86" cy="59" r="1"/><circle class="cls-13" cx="51" cy="77" r="2"/><circle class="cls-13" cx="53" cy="37" r="1"/><circle class="cls-13" cx="73.5" cy="80.5" r="1.5"/><circle class="cls-13" cx="72" cy="40" r="1"/><circle class="cls-13" cx="63.5" cy="70.5" r="1.5"/><circle class="cls-13" cx="56" cy="58" r="1"/><circle class="cls-13" cx="66" cy="31" r="2"/><circle class="cls-13" cx="80.5" cy="72.5" r="2.5"/></g></g></g></svg>