<svg xmlns="http://www.w3.org/2000/svg" xmlns:xlink="http://www.w3.org/1999/xlink" viewBox="0 0 124 119"><defs><style>.cls-1{fill:none;}.cls-2{isolation:isolate;}.cls-3{fill:#656370;}.cls-4{clip-path:url(#clip-path);}.cls-5{opacity:0.1;}.cls-6{fill:#e2d388;}.cls-7{fill:#fff;opacity:0.8;mix-blend-mode:soft-light;}.cls-8{clip-path:url(#clip-path-2);}.cls-9{fill:#77afe0;}.cls-10{clip-path:url(#clip-path-3);}.cls-11{fill:#e1ffff;}.cls-12{fill:#5fa1d3;}.cls-13{clip-path:url(#clip-path-4);}.cls-14{fill:#5ad6e0;}.cls-15{clip-path:url(#clip-path-5);}.cls-16{fill:#73ecef;stroke:#73ecef;stroke-miterlimit:10;}</style><clipPath id="clip-path"><rect class="cls-1" x="10" y="95" width="22" height="14" rx="7"/></clipPath><clipPath id="clip-path-2"><path class="cls-1" d="M25,109H17a7,7,0,0,1-7-7h0a7,7,0,0,1,7-7h8a7,7,0,0,1,7,7h0A7,7,0,0,1,25,109Zm95-47a7,7,0,0,0-7-7H19a7,7,0,0,0,0,14h7a3,3,0,0,1,0,6H11a7,7,0,0,0,0,14H44a3,3,0,0,1,0,6H43a7,7,0,0,0,0,14H97a7,7,0,0,0,0-14H96a3,3,0,0,1,0-6h11a7,7,0,0,0,0-14h-1a3,3,0,0,1,0-6h7A7,7,0,0,0,120,62ZM104,22a7,7,0,0,0-7-7H35a7,7,0,0,0,0,14h6a3,3,0,0,1,0,6H11a7,7,0,0,0,0,14H87a7,7,0,0,0,0-14,3,3,0,0,1,0-6H97A7,7,0,0,0,104,22ZM98,42h0a7,7,0,0,0,7,7h4a7,7,0,0,0,7-7h0a7,7,0,0,0-7-7h-4A7,7,0,0,0,98,42Z"/></clipPath><clipPath id="clip-path-3"><circle class="cls-1" cx="62" cy="62" r="34"/></clipPath><clipPath id="clip-path-4"><path class="cls-1" d="M104,22a7,7,0,0,0-7-7H35a7,7,0,0,0,0,14h6a3,3,0,0,1,0,6H11a7,7,0,0,0,0,14H87a7,7,0,0,0,0-14,3,3,0,0,1,0-6H97A7,7,0,0,0,104,22Z"/></clipPath><clipPath id="clip-path-5"><circle class="cls-1" cx="108" cy="16" r="12"/></clipPath></defs><title>Asset 23</title><g class="cls-2"><g id="Layer_2" data-name="Layer 2"><g id="Neptune"><rect class="cls-3" x="10" y="95" width="22" height="14" rx="7"/><path class="cls-3" d="M120,62a7,7,0,0,0-7-7H19a7,7,0,0,0,0,14h7a3,3,0,0,1,0,6H11a7,7,0,0,0,0,14H44a3,3,0,0,1,0,6H43a7,7,0,0,0,0,14H97a7,7,0,0,0,0-14H96a3,3,0,0,1,0-6h11a7,7,0,0,0,0-14h-1a3,3,0,0,1,0-6h7A7,7,0,0,0,120,62Z"/><path class="cls-3" d="M104,22a7,7,0,0,0-7-7H35a7,7,0,0,0,0,14h6a3,3,0,0,1,0,6H11a7,7,0,0,0,0,14H87a7,7,0,0,0,0-14,3,3,0,0,1,0-6H97A7,7,0,0,0,104,22Z"/><rect class="cls-3" x="98" y="35" width="18" height="14" rx="7"/><g class="cls-4"><circle class="cls-5" cx="12" cy="107" r="12"/><circle class="cls-6" cx="12" cy="107" r="8"/><path class="cls-7" d="M20,107a8,8,0,1,0-8,8A8,8,0,0,0,20,107Zm-2,0a6,6,0,1,1-6-6A6,6,0,0,1,18,107Z"/></g><g class="cls-8"><circle class="cls-5" cx="62" cy="62" r="46"/><circle class="cls-5" cx="62" cy="62" r="42"/><circle class="cls-5" cx="62" cy="62" r="38"/></g><circle class="cls-9" cx="62" cy="62" r="34"/><g class="cls-10"><path class="cls-11" d="M28,48H46v1c-1.9.32-3.89.7-6,1.17s-4,1-5.89,1.5L33,52l-9,3,3-7Z"/><path class="cls-11" d="M100,74l-3.28-.36A102.28,102.28,0,0,0,85.25,73H79v1a24.25,24.25,0,0,1,8,2,22.43,22.43,0,0,1,6,4Z"/></g><ellipse class="cls-11" cx="55.5" cy="53" rx="3.5" ry="1"/><ellipse class="cls-11" cx="67.5" cy="74.5" rx="2.5" ry="1.5"/><circle class="cls-11" cx="40" cy="77" r="1"/><ellipse class="cls-12" cx="54" cy="70" rx="9" ry="4"/><ellipse class="cls-11" cx="53.5" cy="74.5" rx="4.5" ry="1.5"/><path class="cls-7" d="M62,28A34,34,0,1,0,96,62,34,34,0,0,0,62,28Zm0,66A32,32,0,1,1,94,62,32,32,0,0,1,62,94Z"/><g class="cls-13"><circle class="cls-5" cx="108" cy="16" r="16"/><circle class="cls-14" cx="108" cy="16" r="12"/><g class="cls-15"><path class="cls-16" d="M99,31h0a70.52,70.52,0,0,1,.71-9.95l.05-.4a23.07,23.07,0,0,0,.24-3.32h0a23,23,0,0,1,.46-4.61L101,10l1-5Z"/></g><path class="cls-7" d="M120,16a12,12,0,1,0-12,12A12,12,0,0,0,120,16Zm-2,0A10,10,0,1,1,108,6,10,10,0,0,1,118,16Z"/></g></g></g></g></svg>