<svg id="Layer_1" data-name="Layer 1" xmlns="http://www.w3.org/2000/svg" xmlns:xlink="http://www.w3.org/1999/xlink" viewBox="0 0 259 259"><defs><style>.cls-1,.cls-7{fill:none;}.cls-2{fill:#f6f7c9;}.cls-3{fill:#e74c47;}.cls-4{fill:#aa3131;}.cls-5{fill:#382a47;}.cls-6{fill:#e6e6e6;}.cls-7{stroke:#382a47;stroke-miterlimit:10;stroke-width:0.5px;}.cls-8{clip-path:url(#clip-path);}</style><clipPath id="clip-path"><circle class="cls-1" cx="129.5" cy="129.5" r="129.5"/></clipPath><symbol id="Circle_Rocket" data-name="Circle Rocket" viewBox="0 0 8.29 8.29"><circle class="cls-2" cx="4.15" cy="4.15" r="4.15"/></symbol></defs><title>Artboard 2</title><path class="cls-3" d="M130.41,13.31l.09.1Z"/><path class="cls-3" d="M130,13.31l-.09.1Z"/><path class="cls-2" d="M132.53,15.88l.54.68Z"/><path class="cls-2" d="M127.85,15.88l-.54.68Z"/><path class="cls-2" d="M186.75,224.57c-37.79,20.23-75.34,20.23-113.12,0,16.64-15.92,45.7-34.27,48.09-59.64h16.94C141.05,190.3,170.11,208.65,186.75,224.57Z"/><path class="cls-4" d="M188.05,161.15a58.08,58.08,0,0,1-2.31,16.2,58,58,0,0,0-31.17-36.28,124.46,124.46,0,0,0,8-27.89A57.8,57.8,0,0,1,188.05,161.15Z"/><path class="cls-5" d="M144.37,159v5.9H135.7a65.46,65.46,0,0,0,2-7.33A46.51,46.51,0,0,1,144.37,159Z"/><path class="cls-4" d="M139.06,145.27a56.51,56.51,0,0,1-.67,8.58q-.28,1.93-.69,3.75a65.46,65.46,0,0,1-2,7.33,64.71,64.71,0,0,1-5.51,12.42V113.18a69.08,69.08,0,0,1,8.13,23.08A56.76,56.76,0,0,1,139.06,145.27Z"/><path class="cls-3" d="M130.19,113.18v64.17a64.71,64.71,0,0,1-5.51-12.42,65.46,65.46,0,0,1-2-7.33q-.41-1.82-.69-3.75a55.25,55.25,0,0,1,.07-17.59A69.08,69.08,0,0,1,130.19,113.18Z"/><path class="cls-5" d="M124.68,164.93H116V159a46.51,46.51,0,0,1,6.67-1.43A65.46,65.46,0,0,0,124.68,164.93Z"/><path class="cls-3" d="M97.83,113.18a124.46,124.46,0,0,0,8,27.89,58,58,0,0,0-31.17,36.28,57.89,57.89,0,0,1,23.19-64.17Z"/><path class="cls-5" d="M130.19,67.2a11.32,11.32,0,1,1-11.32,11.32A11.32,11.32,0,0,1,130.19,67.2Z"/><path class="cls-3" d="M141.51,78.52a11.32,11.32,0,1,0-11.32,11.31A11.32,11.32,0,0,0,141.51,78.52Zm-11.32-14.7a14.7,14.7,0,1,1-14.69,14.7A14.7,14.7,0,0,1,130.19,63.82Z"/><path class="cls-4" d="M151,45.44c.34.7.68,1.42,1,2.14a69.87,69.87,0,0,0-21.81-3.29V13.07a2.25,2.25,0,0,1,.22.24l.09.1c.37.44,1.08,1.27,2,2.47l.54.68c.47.6,1,1.27,1.55,2l1.32,1.78c1.95,2.67,4.27,6,6.71,10l.93,1.51c.7,1.15,1.4,2.35,2.12,3.59.54,1,1.09,1.93,1.64,2.93.63,1.16,1.26,2.35,1.89,3.56l.93,1.85C150.44,44.3,150.71,44.87,151,45.44Z"/><path class="cls-3" d="M130.19,13.07V44.29a69.87,69.87,0,0,0-21.81,3.29c.33-.72.67-1.44,1-2.14s.55-1.14.83-1.7l.93-1.85c.63-1.21,1.26-2.4,1.89-3.56.55-1,1.1-2,1.64-2.93.72-1.24,1.42-2.44,2.12-3.59l.93-1.51c2.44-3.93,4.76-7.28,6.71-9.95l1.32-1.78c.56-.74,1.08-1.41,1.55-2l.54-.68c1-1.2,1.66-2,2-2.47l.09-.1A2.25,2.25,0,0,1,130.19,13.07Z"/><path class="cls-5" d="M154.69,53.74l-4.26-1.42a69.12,69.12,0,0,0-40.48,0l-4.26,1.42q1.16-2.84,2.38-5.5c.1-.22.2-.44.31-.66a73.94,73.94,0,0,1,43.62,0c.11.22.21.44.31.66Q153.54,50.91,154.69,53.74Z"/><path class="cls-2" d="M151,45.44c-.28-.57-.55-1.14-.83-1.7C150.44,44.3,150.72,44.87,151,45.44Z"/><path class="cls-2" d="M150.16,43.74l-.93-1.85C149.54,42.5,149.85,43.11,150.16,43.74Z"/><path class="cls-2" d="M149.23,41.89c-.63-1.21-1.26-2.4-1.89-3.56C148,39.48,148.6,40.67,149.23,41.89Z"/><path class="cls-2" d="M145.7,35.4c.55,1,1.09,1.93,1.64,2.93C146.79,37.33,146.24,36.35,145.7,35.4Z"/><path class="cls-2" d="M143.58,31.81l-.93-1.51C143,30.79,143.27,31.3,143.58,31.81Z"/><path class="cls-2" d="M135.94,20.35l-1.32-1.78Z"/><path class="cls-2" d="M125.76,18.57l-1.32,1.78Z"/><path class="cls-2" d="M117.73,30.3l-.93,1.51C117.11,31.3,117.42,30.79,117.73,30.3Z"/><path class="cls-2" d="M114.68,35.4c-.54,1-1.09,1.93-1.64,2.93C113.59,37.33,114.13,36.35,114.68,35.4Z"/><path class="cls-2" d="M113,38.33c-.63,1.16-1.26,2.35-1.89,3.56C111.78,40.67,112.41,39.48,113,38.33Z"/><path class="cls-2" d="M111.15,41.89l-.93,1.85C110.53,43.11,110.84,42.5,111.15,41.89Z"/><path class="cls-2" d="M110.22,43.74c-.28.56-.55,1.13-.83,1.7C109.66,44.87,109.94,44.3,110.22,43.74Z"/><path class="cls-6" d="M155,54.58l-.34-.84-4.26-1.42a69.12,69.12,0,0,0-40.48,0l-4.26,1.42-.34.84c-5,12.52-8.8,27.09-8.8,42.67a101.43,101.43,0,0,0,1.28,15.93,124.46,124.46,0,0,0,8,27.89,154,154,0,0,0,9,18.31L116,159a46.51,46.51,0,0,1,6.67-1.43q-.41-1.82-.69-3.75a55.25,55.25,0,0,1,.07-17.59,69.08,69.08,0,0,1,8.13-23.08,69.08,69.08,0,0,1,8.13,23.08,55.25,55.25,0,0,1,.07,17.59q-.28,1.93-.69,3.75a46.51,46.51,0,0,1,6.67,1.43l1.16.35a154,154,0,0,0,9-18.31,124.46,124.46,0,0,0,8-27.89,101.43,101.43,0,0,0,1.28-15.93C163.83,81.67,160.06,67.1,155,54.58Zm-24.84,9.24a14.7,14.7,0,1,1-14.69,14.7A14.7,14.7,0,0,1,130.19,63.82Z"/><polyline class="cls-7" points="124.68 164.93 116.01 164.93 116.01 159.03"/><polyline class="cls-7" points="144.37 159.03 144.37 164.93 135.7 164.93"/><path class="cls-7" d="M97.83,113.18a57.89,57.89,0,0,0-23.19,64.17,58,58,0,0,1,31.17-36.28"/><path class="cls-7" d="M154.57,141.07a58,58,0,0,1,31.17,36.28,57.89,57.89,0,0,0-23.19-64.17"/><path class="cls-7" d="M122.68,157.6A46.51,46.51,0,0,0,116,159l-1.16.35a154,154,0,0,1-9-18.31,124.46,124.46,0,0,1-8-27.89,101.43,101.43,0,0,1-1.28-15.93c0-15.58,3.77-30.15,8.8-42.67l.34-.84"/><path class="cls-7" d="M154.69,53.74l.34.84c5,12.52,8.8,27.09,8.8,42.67a101.43,101.43,0,0,1-1.28,15.93,124.46,124.46,0,0,1-8,27.89,154,154,0,0,1-9,18.31l-1.16-.35a46.51,46.51,0,0,0-6.67-1.43"/><path class="cls-7" d="M138.32,136.26a55.25,55.25,0,0,1,.07,17.59q-.28,1.93-.69,3.75a65.46,65.46,0,0,1-2,7.33,64.71,64.71,0,0,1-5.51,12.42,64.71,64.71,0,0,1-5.51-12.42,65.46,65.46,0,0,1-2-7.33q-.41-1.82-.69-3.75a55.25,55.25,0,0,1,.07-17.59,69.08,69.08,0,0,1,8.13-23.08A69.08,69.08,0,0,1,138.32,136.26Z"/><path class="cls-7" d="M152,47.58c.11.22.21.44.31.66q1.23,2.67,2.38,5.5l-4.26-1.42a69.12,69.12,0,0,0-40.48,0l-4.26,1.42q1.16-2.84,2.38-5.5c.1-.22.2-.44.31-.66"/><path class="cls-7" d="M145.7,35.4c.55,1,1.09,1.93,1.64,2.93s1.26,2.34,1.89,3.56c.31.61.62,1.22.93,1.85s.56,1.13.83,1.7"/><path class="cls-7" d="M142.65,30.3c.31.49.62,1,.93,1.51"/><path class="cls-7" d="M134.62,18.57l1.32,1.78"/><path class="cls-7" d="M132.53,15.88l.54.68"/><path class="cls-7" d="M130.41,13.31l.09.1"/><path class="cls-7" d="M129.88,13.41l.09-.1"/><path class="cls-7" d="M127.31,16.56l.54-.68"/><path class="cls-7" d="M124.44,20.35l1.32-1.78"/><path class="cls-7" d="M116.8,31.81c.31-.51.62-1,.93-1.51"/><path class="cls-7" d="M109.39,45.44c.27-.57.55-1.14.83-1.7s.62-1.24.93-1.85c.63-1.22,1.26-2.41,1.89-3.56s1.09-2,1.64-2.93"/><path class="cls-7" d="M130.19,13.07a2.25,2.25,0,0,0-.22.24l-.09.1c-.37.44-1.08,1.27-2,2.47l-.54.68c-.47.6-1,1.27-1.55,2l-1.32,1.78c-2,2.67-4.27,6-6.71,10l-.93,1.51c-.7,1.15-1.4,2.35-2.12,3.59-.54,1-1.09,1.93-1.64,2.93-.63,1.16-1.26,2.35-1.89,3.56l-.93,1.85c-.28.56-.55,1.13-.83,1.7s-.68,1.42-1,2.14a73.94,73.94,0,0,1,43.62,0c-.33-.72-.67-1.44-1-2.14s-.55-1.14-.83-1.7l-.93-1.85c-.63-1.21-1.26-2.4-1.89-3.56-.55-1-1.1-2-1.64-2.93-.72-1.24-1.42-2.44-2.12-3.59l-.93-1.51c-2.44-3.93-4.76-7.28-6.71-9.95l-1.32-1.78c-.56-.74-1.08-1.41-1.55-2l-.54-.68c-.95-1.2-1.66-2-2-2.47l-.09-.1a2.25,2.25,0,0,0-.22-.24"/><path class="cls-7" d="M144.88,78.52a14.69,14.69,0,1,1-14.69-14.7A14.69,14.69,0,0,1,144.88,78.52Z"/><path class="cls-7" d="M141.51,78.52A11.32,11.32,0,1,1,130.19,67.2,11.31,11.31,0,0,1,141.51,78.52Z"/><polyline class="cls-7" points="130.19 13.06 130.19 13.07 130.19 44.29"/><polyline class="cls-7" points="130.19 113.18 130.19 135.69 130.19 153.85 130.19 157.07 130.19 164.93 130.19 177.35"/><path class="cls-5" d="M130.19,13.07a2.25,2.25,0,0,1,.22.24l.09.1c.37.44,1.08,1.27,2,2.47l.54.68c.47.6,1,1.27,1.55,2l1.32,1.78c1.95,2.67,4.27,6,6.71,10l.93,1.51c.7,1.15,1.4,2.35,2.12,3.59.54,1,1.09,1.93,1.64,2.93s1.26,2.34,1.89,3.56l.93,1.85c.28.56.55,1.13.83,1.7s.68,1.42,1,2.14c.11.22.21.44.31.66q1.23,2.67,2.38,5.5l.34.84c5,12.52,8.8,27.09,8.8,42.67a101.43,101.43,0,0,1-1.28,15.93,57.89,57.89,0,0,1,23.19,64.17,58,58,0,0,0-31.17-36.28,154,154,0,0,1-9,18.31l-1.16-.35v5.9H135.7a64.71,64.71,0,0,1-5.51,12.42,64.71,64.71,0,0,1-5.51-12.42H116V159l-1.16.35a154,154,0,0,1-9-18.31,58,58,0,0,0-31.17,36.28,57.89,57.89,0,0,1,23.19-64.17,101.43,101.43,0,0,1-1.28-15.93c0-15.58,3.77-30.15,8.8-42.67l.34-.84q1.16-2.84,2.38-5.5c.1-.22.2-.44.31-.66.33-.72.67-1.44,1-2.14s.55-1.14.83-1.7l.93-1.85c.63-1.22,1.26-2.41,1.89-3.56s1.1-2,1.64-2.93c.72-1.24,1.42-2.44,2.12-3.59l.93-1.51c2.44-3.93,4.76-7.28,6.71-9.95l1.32-1.78c.56-.74,1.08-1.41,1.55-2l.54-.68c1-1.2,1.66-2,2-2.47l.09-.1a2.25,2.25,0,0,1,.22-.24m0-1.33-.66.58a2.09,2.09,0,0,0-.31.33l-.05.06,0,0,0,0L129,13c-.39.46-1,1.24-1.88,2.3-.12.15-.26.31-.39.49l-.15.19c-.48.61-1,1.28-1.57,2l-1.33,1.79c-2.37,3.25-4.64,6.61-6.75,10L116,31.29c-.72,1.17-1.42,2.38-2.13,3.61-.55,1-1.1,1.94-1.66,3s-1.23,2.28-1.9,3.58l-.93,1.86-.51,1-.33.68c-.34.71-.69,1.44-1,2.16-.1.2-.21.43-.31.67-.8,1.74-1.61,3.6-2.4,5.53-.05.15-.11.28-.17.42s-.11.29-.17.43c-5.89,14.65-8.87,29.13-8.87,43a103.09,103.09,0,0,0,1.19,15.46,58.89,58.89,0,0,0-23.06,64.92l1,3.3,1-3.3a56.91,56.91,0,0,1,29.69-35.21A155.83,155.83,0,0,0,114,159.88l.41.69.62-.19v5.55H124a64.37,64.37,0,0,0,5.38,11.94l.85,1.38.85-1.38a64.37,64.37,0,0,0,5.38-11.94h9v-5.55l.62.19.41-.69a155.83,155.83,0,0,0,8.69-17.46,56.91,56.91,0,0,1,29.69,35.21l1,3.3,1-3.3a58.89,58.89,0,0,0-23.06-64.92,103.09,103.09,0,0,0,1.19-15.46c0-13.91-3-28.39-8.87-43-.06-.14-.12-.29-.17-.43s-.12-.27-.17-.41c-.79-1.94-1.6-3.8-2.4-5.55q-.15-.34-.33-.69c-.31-.69-.66-1.42-1-2.13l-.33-.68-.51-1-.93-1.85c-.67-1.31-1.29-2.48-1.9-3.59l-1.65-3c-.72-1.23-1.42-2.44-2.14-3.61l-.93-1.52c-2.11-3.4-4.38-6.76-6.75-10L135.42,18l-1.56-2-.16-.19c-.13-.18-.27-.34-.39-.5-.83-1.05-1.49-1.83-1.88-2.29l-.16-.19,0,0,0,0-.05,0a2.09,2.09,0,0,0-.31-.33l-.66-.58Z"/><g class="cls-8"><use width="8.29" height="8.29" transform="matrix(2.07, 0.4, -0.4, 2.07, 130.18, 202.53)" xlink:href="#Circle_Rocket"/><use width="8.29" height="8.29" transform="translate(131.56 210.95) rotate(14.31) scale(2.57)" xlink:href="#Circle_Rocket"/><use width="8.29" height="8.29" transform="translate(116.12 220.83) rotate(15.57) scale(3.98)" xlink:href="#Circle_Rocket"/><use width="8.29" height="8.29" transform="translate(106.61 223.27) rotate(15.2) scale(4.72)" xlink:href="#Circle_Rocket"/><use width="8.29" height="8.29" transform="translate(99.47 223.25) rotate(12.73) scale(5.01)" xlink:href="#Circle_Rocket"/><use width="8.29" height="8.29" transform="translate(114.12 216.4) rotate(9.78) scale(3.35)" xlink:href="#Circle_Rocket"/><use width="8.29" height="8.29" transform="translate(67.23 228.88) rotate(5.7) scale(7.1)" xlink:href="#Circle_Rocket"/><use width="8.29" height="8.29" transform="translate(37.04 216.92) rotate(-5.19) scale(7.24)" xlink:href="#Circle_Rocket"/><use width="8.29" height="8.29" transform="matrix(4.12, 0.07, -0.07, 4.12, 75.95, 209.72)" xlink:href="#Circle_Rocket"/><use width="8.29" height="8.29" transform="matrix(8.11, -0.53, 0.53, 8.11, 41.85, 223.7)" xlink:href="#Circle_Rocket"/><use width="8.29" height="8.29" transform="translate(-6.13 185.64) rotate(-1.56) scale(3.5)" xlink:href="#Circle_Rocket"/><use width="8.29" height="8.29" transform="matrix(4.57, -0.27, 0.27, 4.57, 35.23, 194.15)" xlink:href="#Circle_Rocket"/><use width="8.29" height="8.29" transform="matrix(7.63, -0.66, 0.66, 7.63, 19.12, 203.04)" xlink:href="#Circle_Rocket"/><use width="8.29" height="8.29" transform="translate(-14.48 197.64) rotate(-1.83) scale(3.63)" xlink:href="#Circle_Rocket"/><use width="8.29" height="8.29" transform="translate(3.13 194.89) rotate(-5.3) scale(5.83)" xlink:href="#Circle_Rocket"/><use width="8.29" height="8.29" transform="matrix(3.74, -0.21, 0.21, 3.74, -11.21, 220.55)" xlink:href="#Circle_Rocket"/><use width="8.29" height="8.29" transform="translate(5.61 218.93) rotate(-6.72) scale(6.83)" xlink:href="#Circle_Rocket"/><use width="8.29" height="8.29" transform="translate(-4.4 248) rotate(-4.07) scale(3.2)" xlink:href="#Circle_Rocket"/><use width="8.29" height="8.29" transform="translate(71.18 244.49) rotate(5.47) scale(7.25)" xlink:href="#Circle_Rocket"/><use width="8.29" height="8.29" transform="translate(33.77 259.86) rotate(-13.49) scale(6.18)" xlink:href="#Circle_Rocket"/><use width="8.29" height="8.29" transform="matrix(6.71, -0.85, 0.85, 6.71, 53.2, 257.42)" xlink:href="#Circle_Rocket"/><use width="8.29" height="8.29" transform="translate(83.88 246.32) rotate(10.18) scale(6.6)" xlink:href="#Circle_Rocket"/><use width="8.29" height="8.29" transform="translate(170.68 234.48) rotate(36.44) scale(5.98)" xlink:href="#Circle_Rocket"/><use width="8.29" height="8.29" transform="translate(108.14 239.66) rotate(24.76) scale(6.26)" xlink:href="#Circle_Rocket"/><use width="8.29" height="8.29" transform="matrix(4.73, 3.25, -3.25, 4.73, 163.94, 237.59)" xlink:href="#Circle_Rocket"/><use width="8.29" height="8.29" transform="matrix(2.75, 2.47, -2.47, 2.75, 172.89, 206.25)" xlink:href="#Circle_Rocket"/><use width="8.29" height="8.29" transform="translate(171.27 222.85) rotate(46.6) scale(4.92)" xlink:href="#Circle_Rocket"/><use width="8.29" height="8.29" transform="translate(183.39 222.86) rotate(45.33) scale(6.36)" xlink:href="#Circle_Rocket"/><use width="8.29" height="8.29" transform="translate(134.33 219.91) rotate(25.75) scale(3.68)" xlink:href="#Circle_Rocket"/><use width="8.29" height="8.29" transform="translate(152.35 230.96) rotate(41.71) scale(4.91)" xlink:href="#Circle_Rocket"/><use width="8.29" height="8.29" transform="translate(150.37 232.07) rotate(41.1) scale(5.09)" xlink:href="#Circle_Rocket"/><use width="8.29" height="8.29" transform="translate(202.75 203.94) rotate(55.47) scale(6.59)" xlink:href="#Circle_Rocket"/><use width="8.29" height="8.29" transform="matrix(3.39, 5.08, -5.08, 3.39, 204.19, 200.14)" xlink:href="#Circle_Rocket"/><use width="8.29" height="8.29" transform="translate(242.46 199.74) rotate(53.7) scale(6.36)" xlink:href="#Circle_Rocket"/><use width="8.29" height="8.29" transform="translate(249.89 181.52) rotate(59.93) scale(7.01)" xlink:href="#Circle_Rocket"/><use width="8.29" height="8.29" transform="translate(225.1 184.08) rotate(57.77) scale(4.89)" xlink:href="#Circle_Rocket"/><use width="8.29" height="8.29" transform="matrix(2.93, 4.02, -4.02, 2.93, 251.82, 178.93)" xlink:href="#Circle_Rocket"/><use width="8.29" height="8.29" transform="translate(246.91 170.3) rotate(46.2) scale(3.07)" xlink:href="#Circle_Rocket"/><use width="8.29" height="8.29" transform="translate(251.96 175.3) rotate(33.59) scale(2.47)" xlink:href="#Circle_Rocket"/><use width="8.29" height="8.29" transform="translate(261.94 185.81) rotate(20.72) scale(1.96)" xlink:href="#Circle_Rocket"/><use width="8.29" height="8.29" transform="translate(258.13 169.65) rotate(14.46) scale(1.5)" xlink:href="#Circle_Rocket"/><use width="8.29" height="8.29" transform="translate(263.46 186.99) rotate(25.15) scale(2.4)" xlink:href="#Circle_Rocket"/><use width="8.29" height="8.29" transform="translate(264.65 215.7) rotate(25.62) scale(2.73)" xlink:href="#Circle_Rocket"/><use width="8.29" height="8.29" transform="translate(254.03 204.85) rotate(42.14) scale(4.28)" xlink:href="#Circle_Rocket"/><use width="8.29" height="8.29" transform="translate(260.19 236.94) rotate(24.21) scale(2.57)" xlink:href="#Circle_Rocket"/><use width="8.29" height="8.29" transform="matrix(3.18, 2.57, -2.57, 3.18, 257.64, 211.4)" xlink:href="#Circle_Rocket"/><use width="8.29" height="8.29" transform="translate(206.15 214.09) rotate(50) scale(6.83)" xlink:href="#Circle_Rocket"/><use width="8.29" height="8.29" transform="translate(231.53 253.5) rotate(34.46) scale(2.9)" xlink:href="#Circle_Rocket"/><use width="8.29" height="8.29" transform="matrix(3.8, 3.78, -3.78, 3.8, 220.84, 223.27)" xlink:href="#Circle_Rocket"/></g></svg>