<svg xmlns="http://www.w3.org/2000/svg" viewBox="0 0 117.72 169.19"><defs><style>.cls-1{fill:#e74c47;}.cls-2{fill:#382a47;}.cls-3{fill:#f6f7c9;}.cls-4{fill:#e6e6e6;}.cls-5{fill:none;stroke:#382a47;stroke-miterlimit:10;stroke-width:0.5px;}</style></defs><title>Asset 5</title><g id="Layer_2" data-name="Layer 2"><g id="Layer_1-2" data-name="Layer 1"><path class="cls-1" d="M116.72,149.41a58.08,58.08,0,0,1-2.31,16.2,58,58,0,0,0-31.17-36.28,124.46,124.46,0,0,0,8-27.89A57.8,57.8,0,0,1,116.72,149.41Z"/><path class="cls-2" d="M73,147.29v5.9H64.37a65.46,65.46,0,0,0,2-7.33A46.51,46.51,0,0,1,73,147.29Z"/><path class="cls-1" d="M67.73,133.53a56.51,56.51,0,0,1-.67,8.58q-.28,1.94-.69,3.75a65.46,65.46,0,0,1-2,7.33,64.71,64.71,0,0,1-5.51,12.42V101.44A69.08,69.08,0,0,1,67,124.52,56.76,56.76,0,0,1,67.73,133.53Z"/><path class="cls-1" d="M58.86,101.44v64.17a64.71,64.71,0,0,1-5.51-12.42,65.46,65.46,0,0,1-2-7.33q-.41-1.81-.69-3.75a55.25,55.25,0,0,1,.07-17.59A69.08,69.08,0,0,1,58.86,101.44Z"/><path class="cls-2" d="M53.35,153.19H44.68v-5.9a46.51,46.51,0,0,1,6.67-1.43A65.46,65.46,0,0,0,53.35,153.19Z"/><path class="cls-1" d="M26.5,101.44a124.46,124.46,0,0,0,8,27.89A58,58,0,0,0,3.31,165.61,57.89,57.89,0,0,1,26.5,101.44Z"/><path class="cls-2" d="M58.86,55.46A11.32,11.32,0,1,1,47.54,66.78,11.32,11.32,0,0,1,58.86,55.46Z"/><path class="cls-1" d="M70.18,66.78A11.32,11.32,0,1,0,58.86,78.09,11.32,11.32,0,0,0,70.18,66.78ZM58.86,52.08a14.7,14.7,0,1,1-14.69,14.7A14.7,14.7,0,0,1,58.86,52.08Z"/><path class="cls-1" d="M79.66,33.7c.34.7.68,1.42,1,2.14a69.87,69.87,0,0,0-21.81-3.29V1.33a2.25,2.25,0,0,1,.22.24l.09.1c.37.44,1.08,1.27,2,2.47l.54.68c.47.6,1,1.27,1.55,2l1.32,1.78c2,2.67,4.27,6,6.71,10l.93,1.51c.7,1.15,1.4,2.35,2.12,3.59.54.95,1.09,1.93,1.64,2.93.63,1.16,1.26,2.35,1.89,3.56L78.83,32C79.11,32.56,79.38,33.13,79.66,33.7Z"/><path class="cls-1" d="M58.86,1.33V32.55a69.87,69.87,0,0,0-21.81,3.29c.33-.72.67-1.44,1-2.14s.55-1.14.83-1.7l.93-1.85c.63-1.21,1.26-2.4,1.89-3.56.55-1,1.1-2,1.64-2.93.72-1.24,1.42-2.44,2.12-3.59l.93-1.51c2.44-3.93,4.76-7.28,6.71-9.95l1.32-1.78c.56-.74,1.08-1.41,1.55-2l.54-.68c.95-1.2,1.66-2,2-2.47l.09-.1A2.25,2.25,0,0,1,58.86,1.33Z"/><path class="cls-2" d="M83.36,42,79.1,40.58a65.24,65.24,0,0,0-20.24-3,65.24,65.24,0,0,0-20.24,3L34.36,42q1.16-2.84,2.38-5.5c.1-.22.2-.44.31-.66a69.87,69.87,0,0,1,21.81-3.29,69.87,69.87,0,0,1,21.81,3.29c.11.22.21.44.31.66Q82.21,39.17,83.36,42Z"/><path class="cls-3" d="M79.66,33.7c-.28-.57-.55-1.14-.83-1.7C79.11,32.56,79.39,33.13,79.66,33.7Z"/><path class="cls-3" d="M78.83,32l-.93-1.85C78.21,30.76,78.52,31.37,78.83,32Z"/><path class="cls-3" d="M77.9,30.15c-.63-1.21-1.26-2.4-1.89-3.56C76.64,27.74,77.27,28.93,77.9,30.15Z"/><path class="cls-3" d="M74.37,23.66c.55.95,1.09,1.93,1.64,2.93C75.46,25.59,74.91,24.61,74.37,23.66Z"/><path class="cls-3" d="M72.25,20.07l-.93-1.51C71.63,19.05,71.94,19.56,72.25,20.07Z"/><path class="cls-3" d="M64.61,8.61,63.29,6.83Z"/><path class="cls-3" d="M54.43,6.83,53.11,8.61Z"/><path class="cls-3" d="M46.4,18.56l-.93,1.51C45.78,19.56,46.09,19.05,46.4,18.56Z"/><path class="cls-3" d="M43.35,23.66c-.54.95-1.09,1.93-1.64,2.93C42.26,25.59,42.8,24.61,43.35,23.66Z"/><path class="cls-3" d="M41.71,26.59c-.63,1.16-1.26,2.35-1.89,3.56C40.45,28.93,41.08,27.74,41.71,26.59Z"/><path class="cls-3" d="M39.82,30.15,38.89,32C39.2,31.37,39.51,30.76,39.82,30.15Z"/><path class="cls-3" d="M38.89,32c-.28.56-.55,1.13-.83,1.7C38.33,33.13,38.61,32.56,38.89,32Z"/><path class="cls-4" d="M83.7,42.84,83.36,42,79.1,40.58a65.24,65.24,0,0,0-20.24-3,65.24,65.24,0,0,0-20.24,3L34.36,42l-.34.84c-5,12.52-8.8,27.09-8.8,42.67a101.43,101.43,0,0,0,1.28,15.93,124.46,124.46,0,0,0,8,27.89,154,154,0,0,0,9,18.31l1.16-.35a46.51,46.51,0,0,1,6.67-1.43q-.41-1.81-.69-3.75a55.25,55.25,0,0,1,.07-17.59,69.08,69.08,0,0,1,8.13-23.08A69.08,69.08,0,0,1,67,124.52a56.76,56.76,0,0,1,.74,9,56.51,56.51,0,0,1-.67,8.58q-.28,1.94-.69,3.75A46.51,46.51,0,0,1,73,147.29l1.16.35a154,154,0,0,0,9-18.31,124.46,124.46,0,0,0,8-27.89A101.43,101.43,0,0,0,92.5,85.51C92.5,69.93,88.73,55.36,83.7,42.84ZM58.86,52.08a14.7,14.7,0,1,1-14.69,14.7A14.7,14.7,0,0,1,58.86,52.08Z"/><polyline class="cls-5" points="53.35 153.19 44.68 153.19 44.68 147.29"/><polyline class="cls-5" points="73.04 147.29 73.04 153.19 64.37 153.19"/><path class="cls-5" d="M26.5,101.44A57.89,57.89,0,0,0,3.31,165.61a58,58,0,0,1,31.17-36.28"/><path class="cls-5" d="M83.24,129.33a58,58,0,0,1,31.17,36.28,57.89,57.89,0,0,0-23.19-64.17"/><path class="cls-5" d="M51.35,145.86a46.51,46.51,0,0,0-6.67,1.43l-1.16.35a154,154,0,0,1-9-18.31,124.46,124.46,0,0,1-8-27.89,101.43,101.43,0,0,1-1.28-15.93c0-15.58,3.77-30.15,8.8-42.67l.34-.84"/><path class="cls-5" d="M83.36,42l.34.84c5,12.52,8.8,27.09,8.8,42.67a101.43,101.43,0,0,1-1.28,15.93,124.46,124.46,0,0,1-8,27.89,154,154,0,0,1-9,18.31L73,147.29a46.51,46.51,0,0,0-6.67-1.43"/><path class="cls-5" d="M67,124.52a56.76,56.76,0,0,1,.74,9,56.51,56.51,0,0,1-.67,8.58q-.28,1.94-.69,3.75a65.46,65.46,0,0,1-2,7.33,64.71,64.71,0,0,1-5.51,12.42,64.71,64.71,0,0,1-5.51-12.42,65.46,65.46,0,0,1-2-7.33q-.41-1.81-.69-3.75a55.25,55.25,0,0,1,.07-17.59,69.08,69.08,0,0,1,8.13-23.08A69.08,69.08,0,0,1,67,124.52Z"/><path class="cls-5" d="M80.67,35.84c.11.22.21.44.31.66q1.23,2.67,2.38,5.5L79.1,40.58a65.24,65.24,0,0,0-20.24-3,65.24,65.24,0,0,0-20.24,3L34.36,42q1.16-2.84,2.38-5.5c.1-.22.2-.44.31-.66"/><path class="cls-5" d="M74.37,23.66c.55.95,1.09,1.93,1.64,2.93s1.26,2.34,1.89,3.56c.31.61.62,1.22.93,1.85s.56,1.13.83,1.7"/><path class="cls-5" d="M71.32,18.56c.31.49.62,1,.93,1.51"/><path class="cls-5" d="M63.29,6.83l1.32,1.78"/><path class="cls-5" d="M61.2,4.14l.54.68"/><path class="cls-5" d="M59.08,1.57l.09.1"/><path class="cls-5" d="M58.55,1.67l.09-.1"/><path class="cls-5" d="M56,4.82l.54-.68"/><path class="cls-5" d="M53.11,8.61l1.32-1.78"/><path class="cls-5" d="M45.47,20.07c.31-.51.62-1,.93-1.51"/><path class="cls-5" d="M38.06,33.7c.27-.57.55-1.14.83-1.7s.62-1.24.93-1.85c.63-1.22,1.26-2.41,1.89-3.56s1.09-2,1.64-2.93"/><path class="cls-5" d="M58.86,1.33a2.25,2.25,0,0,0-.22.24l-.09.1c-.37.44-1.08,1.27-2,2.47L56,4.82c-.47.6-1,1.27-1.55,2L53.11,8.61c-2,2.67-4.27,6-6.71,10l-.93,1.51c-.7,1.15-1.4,2.35-2.12,3.59-.54.95-1.09,1.93-1.64,2.93-.63,1.16-1.26,2.35-1.89,3.56L38.89,32c-.28.56-.55,1.13-.83,1.7s-.68,1.42-1,2.14a69.87,69.87,0,0,1,21.81-3.29,69.87,69.87,0,0,1,21.81,3.29c-.33-.72-.67-1.44-1-2.14s-.55-1.14-.83-1.7l-.93-1.85c-.63-1.21-1.26-2.4-1.89-3.56-.55-1-1.1-2-1.64-2.93-.72-1.24-1.42-2.44-2.12-3.59l-.93-1.51c-2.44-3.93-4.76-7.28-6.71-9.95L63.29,6.83c-.56-.74-1.08-1.41-1.55-2l-.54-.68c-1-1.2-1.66-2-2-2.47l-.09-.1a2.25,2.25,0,0,0-.22-.24"/><path class="cls-5" d="M73.55,66.78a14.69,14.69,0,1,1-14.69-14.7A14.69,14.69,0,0,1,73.55,66.78Z"/><path class="cls-5" d="M70.18,66.78A11.32,11.32,0,1,1,58.86,55.46,11.31,11.31,0,0,1,70.18,66.78Z"/><polyline class="cls-5" points="58.86 1.32 58.86 1.33 58.86 32.55"/><polyline class="cls-5" points="58.86 101.44 58.86 123.95 58.86 142.11 58.86 145.33 58.86 153.19 58.86 165.61"/><path class="cls-2" d="M58.86,1.33a2.25,2.25,0,0,1,.22.24l.09.1c.37.44,1.08,1.27,2,2.47l.54.68c.47.6,1,1.27,1.55,2l1.32,1.78c2,2.67,4.27,6,6.71,10l.93,1.51c.7,1.15,1.4,2.35,2.12,3.59.54.95,1.09,1.93,1.64,2.93s1.26,2.34,1.89,3.56L78.83,32c.28.56.55,1.13.83,1.7s.68,1.42,1,2.14c.11.22.21.44.31.66q1.23,2.67,2.38,5.5l.34.84c5,12.52,8.8,27.09,8.8,42.67a101.43,101.43,0,0,1-1.28,15.93,57.89,57.89,0,0,1,23.19,64.17,58,58,0,0,0-31.17-36.28,154,154,0,0,1-9,18.31L73,147.29v5.9H64.37a64.71,64.71,0,0,1-5.51,12.42,64.71,64.71,0,0,1-5.51-12.42H44.68v-5.9l-1.16.35a154,154,0,0,1-9-18.31A58,58,0,0,0,3.31,165.61,57.89,57.89,0,0,1,26.5,101.44a101.43,101.43,0,0,1-1.28-15.93c0-15.58,3.77-30.15,8.8-42.67l.34-.84q1.16-2.84,2.38-5.5c.1-.22.2-.44.31-.66.33-.72.67-1.44,1-2.14s.55-1.14.83-1.7l.93-1.85c.63-1.22,1.26-2.41,1.89-3.56s1.1-2,1.64-2.93c.72-1.24,1.42-2.44,2.12-3.59l.93-1.51c2.44-3.93,4.76-7.28,6.71-9.95l1.32-1.78c.56-.74,1.08-1.41,1.55-2l.54-.68c.95-1.2,1.66-2,2-2.47l.09-.1a2.25,2.25,0,0,1,.22-.24m0-1.33L58.2.58a2.09,2.09,0,0,0-.31.33l0,.06,0,0,0,0-.16.19c-.39.47-1,1.25-1.88,2.31-.12.15-.26.31-.39.49l-.15.19c-.48.61-1,1.28-1.57,2L52.3,8c-2.37,3.25-4.64,6.61-6.75,10l-.93,1.52c-.72,1.17-1.42,2.38-2.13,3.61-.55,1-1.1,1.94-1.66,2.95s-1.23,2.28-1.9,3.58L38,31.55l-.51,1-.33.68c-.34.71-.69,1.44-1,2.16-.1.2-.21.43-.31.66-.8,1.75-1.61,3.61-2.4,5.54,0,.15-.11.28-.17.42s-.11.29-.17.43c-5.89,14.65-8.87,29.13-8.87,43A103.09,103.09,0,0,0,25.41,101,58.89,58.89,0,0,0,2.35,165.89l1,3.3,1-3.3A56.91,56.91,0,0,1,34,130.68a155.83,155.83,0,0,0,8.69,17.46l.41.69.62-.19v5.55h9A64.37,64.37,0,0,0,58,166.13l.85,1.38.85-1.38a64.37,64.37,0,0,0,5.38-11.94h9v-5.55l.62.19.41-.69a155.83,155.83,0,0,0,8.69-17.46,56.91,56.91,0,0,1,29.69,35.21l1,3.3,1-3.3A58.89,58.89,0,0,0,92.31,101,103.09,103.09,0,0,0,93.5,85.51c0-13.91-3-28.39-8.87-43-.06-.14-.12-.29-.17-.43s-.12-.27-.17-.41c-.79-1.94-1.6-3.8-2.4-5.55q-.15-.34-.33-.69c-.31-.69-.66-1.42-1-2.13l-.33-.68-.51-1-.93-1.85c-.67-1.31-1.29-2.48-1.9-3.59l-1.65-2.95c-.72-1.23-1.42-2.44-2.14-3.61L72.17,18c-2.11-3.4-4.38-6.76-6.75-10L64.09,6.23l-1.56-2L62.37,4c-.13-.18-.27-.34-.39-.5-.83-1-1.49-1.83-1.88-2.3L59.94,1l0,0,0,0-.05,0a2.09,2.09,0,0,0-.31-.33L58.86,0Z"/></g></g></svg>