<svg xmlns="http://www.w3.org/2000/svg" xmlns:xlink="http://www.w3.org/1999/xlink" viewBox="0 0 116 94"><defs><style>.cls-1{fill:none;}.cls-2{isolation:isolate;}.cls-3{fill:#656370;}.cls-4{clip-path:url(#clip-path);}.cls-5{opacity:0.1;}.cls-6{fill:#e27959;}.cls-7{fill:#fff;opacity:0.8;mix-blend-mode:soft-light;}.cls-8{clip-path:url(#clip-path-2);}.cls-9{fill:#ffe9a4;}.cls-10{fill:#d8ca8b;}.cls-11{clip-path:url(#clip-path-3);}.cls-12{fill:#a59862;}.cls-13{fill:#bcaf75;}.cls-14{fill:#eadba0;}.cls-15{clip-path:url(#clip-path-5);}.cls-16{fill:#5ad6e0;}.cls-17{clip-path:url(#clip-path-6);}.cls-18{fill:#73ecef;stroke:#73ecef;stroke-miterlimit:10;}</style><clipPath id="clip-path"><rect class="cls-1" x="6" y="80" width="22" height="14" rx="7"/></clipPath><clipPath id="clip-path-2"><path class="cls-1" d="M21,94H13a7,7,0,0,1-7-7H6a7,7,0,0,1,7-7h8a7,7,0,0,1,7,7h0A7,7,0,0,1,21,94Zm95-47a7,7,0,0,0-7-7H15a7,7,0,0,0,0,14h7a3,3,0,0,1,0,6H7A7,7,0,0,0,7,74H40a3,3,0,0,1,0,6H39a7,7,0,0,0,0,14H93a7,7,0,0,0,0-14H92a3,3,0,0,1,0-6h11a7,7,0,0,0,0-14h-1a3,3,0,0,1,0-6h7A7,7,0,0,0,116,47ZM100,7a7,7,0,0,0-7-7H31a7,7,0,0,0,0,14h6a3,3,0,0,1,0,6H7A7,7,0,0,0,7,34H83a7,7,0,0,0,0-14,3,3,0,0,1,0-6H93A7,7,0,0,0,100,7ZM94,27h0a7,7,0,0,0,7,7h4a7,7,0,0,0,7-7h0a7,7,0,0,0-7-7h-4A7,7,0,0,0,94,27Z"/></clipPath><clipPath id="clip-path-3"><circle class="cls-1" cx="58" cy="47" r="34"/></clipPath><clipPath id="clip-path-5"><path class="cls-1" d="M100,7a7,7,0,0,0-7-7H31a7,7,0,0,0,0,14h6a3,3,0,0,1,0,6H7A7,7,0,0,0,7,34H83a7,7,0,0,0,0-14,3,3,0,0,1,0-6H93A7,7,0,0,0,100,7Z"/></clipPath><clipPath id="clip-path-6"><circle class="cls-1" cx="104" cy="1" r="12"/></clipPath></defs><title>Artboard 8 copy</title><g class="cls-2"><g id="Saturn"><rect class="cls-3" x="6" y="80" width="22" height="14" rx="7"/><path class="cls-3" d="M116,47a7,7,0,0,0-7-7H15a7,7,0,0,0,0,14h7a3,3,0,0,1,0,6H7A7,7,0,0,0,7,74H40a3,3,0,0,1,0,6H39a7,7,0,0,0,0,14H93a7,7,0,0,0,0-14H92a3,3,0,0,1,0-6h11a7,7,0,0,0,0-14h-1a3,3,0,0,1,0-6h7A7,7,0,0,0,116,47Z"/><path class="cls-3" d="M100,7a7,7,0,0,0-7-7H31a7,7,0,0,0,0,14h6a3,3,0,0,1,0,6H7A7,7,0,0,0,7,34H83a7,7,0,0,0,0-14,3,3,0,0,1,0-6H93A7,7,0,0,0,100,7Z"/><rect class="cls-3" x="94" y="20" width="18" height="14" rx="7"/><g class="cls-4"><circle class="cls-5" cx="8" cy="92" r="12"/><circle class="cls-6" cx="8" cy="92" r="8"/><path class="cls-7" d="M16,92a8,8,0,1,0-8,8A8,8,0,0,0,16,92Zm-2,0a6,6,0,1,1-6-6A6,6,0,0,1,14,92Z"/></g><rect class="cls-1" x="6" y="80" width="22" height="14" rx="7"/><rect class="cls-1" x="24" width="76" height="14" rx="7"/><g class="cls-8"><circle class="cls-5" cx="58" cy="47" r="46"/><circle class="cls-5" cx="58" cy="47" r="42"/><circle class="cls-5" cx="58" cy="47" r="38"/></g><path class="cls-9" d="M52.71,35.12C28,46.13,10.32,60.37,13.24,66.93s25.33,2.95,50.05-8.05,42.39-25.25,39.47-31.81S77.43,24.12,52.71,35.12Zm8.95,20.1C42,64,24.39,67.4,22.37,62.86s12.29-15.32,32-24.08S91.61,26.6,93.63,31.14,81.34,46.46,61.66,55.22Z"/><path class="cls-9" d="M52.71,35.12C28,46.13,10.32,60.37,13.24,66.93s25.33,2.95,50.05-8.05,42.39-25.25,39.47-31.81S77.43,24.12,52.71,35.12Zm8.95,20.1C42,64,24.39,67.4,22.37,62.86s12.29-15.32,32-24.08S91.61,26.6,93.63,31.14,81.34,46.46,61.66,55.22Z"/><circle class="cls-10" cx="58" cy="47" r="34"/><g class="cls-11"><rect class="cls-12" x="17.95" y="24.53" width="66" height="3" transform="translate(-4.97 13.92) rotate(-14.84)"/><rect class="cls-13" x="15.41" y="35.92" width="78" height="4" transform="translate(-7.9 15.2) rotate(-14.84)"/><rect class="cls-14" x="15.36" y="43.93" width="80" height="3" transform="translate(-9.79 15.69) rotate(-14.84)"/><rect class="cls-13" x="16.64" y="46.76" width="80" height="7" transform="translate(-10.98 16.18) rotate(-14.84)"/><rect class="cls-12" x="18.82" y="56.06" width="80" height="2" transform="translate(-12.65 16.97) rotate(-14.84)"/><rect class="cls-13" x="20.99" y="65.35" width="80" height="5" transform="translate(-15.34 17.89) rotate(-14.84)"/><rect class="cls-14" x="22.02" y="70.22" width="80" height="3" transform="translate(-16.3 18.28) rotate(-14.84)"/></g><path class="cls-7" d="M58,13A34,34,0,1,0,92,47,34,34,0,0,0,58,13Zm0,66A32,32,0,1,1,90,47,32,32,0,0,1,58,79Z"/><g class="cls-11"><rect class="cls-12" x="17.95" y="24.53" width="66" height="3" transform="translate(-4.97 13.92) rotate(-14.84)"/><rect class="cls-13" x="15.41" y="35.92" width="78" height="4" transform="translate(-7.9 15.2) rotate(-14.84)"/><rect class="cls-14" x="15.36" y="43.93" width="80" height="3" transform="translate(-9.79 15.69) rotate(-14.84)"/><rect class="cls-13" x="16.64" y="46.76" width="80" height="7" transform="translate(-10.98 16.18) rotate(-14.84)"/><rect class="cls-12" x="18.82" y="56.06" width="80" height="2" transform="translate(-12.65 16.97) rotate(-14.84)"/><rect class="cls-13" x="20.99" y="65.35" width="80" height="5" transform="translate(-15.34 17.89) rotate(-14.84)"/><rect class="cls-14" x="22.02" y="70.22" width="80" height="3" transform="translate(-16.3 18.28) rotate(-14.84)"/></g><path class="cls-7" d="M58,13A34,34,0,1,0,92,47,34,34,0,0,0,58,13Zm0,66A32,32,0,1,1,90,47,32,32,0,0,1,58,79Z"/><path class="cls-9" d="M91.72,42.61A146.65,146.65,0,0,1,63.29,58.88,146.62,146.62,0,0,1,32.18,69.12C22,71,14.81,70.46,13.24,66.93s2.81-9.27,11-15.54a33.09,33.09,0,0,0,1.09,5.18c-2.54,2.58-3.67,4.78-3,6.29s3.06,2.14,6.68,2c7.26-.31,19.46-3.78,32.61-9.63s23.89-12.6,29-17.79c2.54-2.58,3.67-4.78,3-6.29S90.57,29,87,29.15a34.67,34.67,0,0,0-3.13-4.27C94,23,101.19,23.54,102.76,27.07S100,36.34,91.72,42.61Z"/><g class="cls-15"><circle class="cls-5" cx="104" cy="1" r="16"/><circle class="cls-16" cx="104" cy="1" r="12"/><g class="cls-17"><path class="cls-18" d="M95,16h0a70.52,70.52,0,0,1,.71-9.95l.05-.4A23.07,23.07,0,0,0,96,2.33h0a23,23,0,0,1,.46-4.61L97-5l1-5Z"/></g><path class="cls-7" d="M116,1a12,12,0,1,0-12,12A12,12,0,0,0,116,1Zm-2,0A10,10,0,0,1,94,1a10,10,0,0,1,20,0Z"/></g></g></g></svg>