<svg xmlns="http://www.w3.org/2000/svg" xmlns:xlink="http://www.w3.org/1999/xlink" viewBox="0 0 2641 1091"><defs><style>.cls-1,.cls-7{fill:none;}.cls-2{isolation:isolate;}.cls-3{clip-path:url(#clip-path);}.cls-4{fill:#e55928;}.cls-5{fill:#e26b29;}.cls-6{fill:#e08d2b;}.cls-7{stroke:#fff;stroke-miterlimit:10;stroke-width:3px;}.cls-8{fill:#d0d0d8;}.cls-14,.cls-15,.cls-33,.cls-34,.cls-35,.cls-39,.cls-9{fill:#fff;}.cls-9{opacity:0.68;}.cls-15,.cls-39,.cls-9{mix-blend-mode:soft-light;}.cls-10{fill:#aaaab2;}.cls-11{fill:#ea7d7d;}.cls-12{fill:#bf6262;}.cls-13{clip-path:url(#clip-path-2);}.cls-15{opacity:0.8;}.cls-16{fill:#e27959;}.cls-17{clip-path:url(#clip-path-3);}.cls-18{fill:#ff9b73;}.cls-19{fill:#d3674f;}.cls-20{fill:#ffe9a4;}.cls-21{fill:#d8ca8b;}.cls-22{clip-path:url(#clip-path-4);}.cls-23{fill:#a59862;}.cls-24{fill:#bcaf75;}.cls-25{fill:#eadba0;}.cls-26{fill:#e1ffff;}.cls-27{fill:#5ad6e0;}.cls-28{clip-path:url(#clip-path-6);}.cls-29{fill:#73ecef;}.cls-30{fill:#77afe0;}.cls-31{clip-path:url(#clip-path-8);}.cls-32{fill:#5fa1d3;}.cls-33,.cls-34,.cls-35{font-size:55px;font-family:Raleway-SemiBold, Raleway;font-weight:600;}.cls-33{letter-spacing:-0.03em;}.cls-35{letter-spacing:-0.02em;}.cls-36{fill:#78d2ea;}.cls-37{clip-path:url(#clip-path-9);}.cls-38{fill:#80e5c8;}.cls-40{clip-path:url(#clip-path-10);}</style><clipPath id="clip-path"><rect class="cls-1" width="2161" height="1091"/></clipPath><clipPath id="clip-path-2"><circle class="cls-1" cx="690" cy="224" r="94"/></clipPath><clipPath id="clip-path-3"><ellipse class="cls-1" cx="1135.54" cy="242.06" rx="202.46" ry="201.87"/></clipPath><clipPath id="clip-path-4"><circle class="cls-1" cx="1739.09" cy="827.94" r="190.44"/></clipPath><clipPath id="clip-path-6"><circle class="cls-1" cx="1918.49" cy="279" r="171.51"/></clipPath><clipPath id="clip-path-8"><circle class="cls-1" cx="2391.5" cy="616.5" r="164.5"/></clipPath><clipPath id="clip-path-9"><circle class="cls-1" cx="817.69" cy="759.11" r="125.31"/></clipPath><clipPath id="clip-path-10"><circle class="cls-1" cx="293" cy="494.99" r="105"/></clipPath></defs><title>Artboard 16</title><g class="cls-2"><g id="Solar_System" data-name="Solar System"><g class="cls-3"><circle class="cls-4" cy="1091" r="230"/><path class="cls-5" d="M0,861c-127,0-230,103-230,230s103,230,230,230,230-103,230-230S127,861,0,861Zm0,421c-105.47,0-191-85.5-191-191s85.5-191,191-191,191,85.5,191,191S105.47,1282,0,1282Z"/><path class="cls-6" d="M0,814c-153,0-277,124-277,277s124,277,277,277,277-124,277-277S153,814,0,814Zm0,507c-127,0-230-103-230-230S-127,861,0,861s230,103,230,230S127,1321,0,1321Z"/></g><circle class="cls-7" cx="13.5" cy="1090.5" r="433.5"/><circle class="cls-7" cx="13.5" cy="1090.5" r="659.5"/><circle class="cls-7" cx="13.5" cy="1090.5" r="871"/><circle class="cls-7" cx="13.5" cy="1090.5" r="1096.5"/><circle class="cls-7" cx="13.5" cy="1090.5" r="1424"/><circle class="cls-7" cx="52.5" cy="1090.5" r="1704.5"/><circle class="cls-7" cx="103.5" cy="1090.5" r="1991.5"/><circle class="cls-7" cx="103.5" cy="1090.5" r="2338"/><circle class="cls-8" cx="421.54" cy="947.29" r="77.71"/><path class="cls-9" d="M421.54,869.57a77.72,77.72,0,1,0,77.72,77.72A77.72,77.72,0,0,0,421.54,869.57Zm0,150.86a73.14,73.14,0,1,1,73.14-73.14A73.22,73.22,0,0,1,421.54,1020.43Z"/><circle class="cls-10" cx="420.4" cy="927.86" r="3.43"/><circle class="cls-10" cx="451.26" cy="958.72" r="4.57"/><circle class="cls-10" cx="378.11" cy="965.57" r="2.29"/><circle class="cls-10" cx="378.11" cy="922.14" r="4.57"/><circle class="cls-10" cx="463.83" cy="918.72" r="3.43"/><circle class="cls-10" cx="476.4" cy="951.86" r="2.29"/><circle class="cls-10" cx="396.4" cy="993" r="4.57"/><circle class="cls-10" cx="400.97" cy="901.57" r="2.29"/><circle class="cls-10" cx="447.83" cy="1001" r="3.43"/><circle class="cls-10" cx="444.4" cy="908.43" r="2.29"/><circle class="cls-10" cx="424.97" cy="978.14" r="3.43"/><circle class="cls-10" cx="407.83" cy="949.57" r="2.29"/><circle class="cls-10" cx="430.69" cy="887.86" r="4.57"/><circle class="cls-10" cx="463.83" cy="982.72" r="5.71"/><circle class="cls-11" cx="690" cy="224" r="94"/><circle class="cls-12" cx="677.56" cy="172.85" r="6.91"/><ellipse class="cls-12" cx="730.09" cy="203.26" rx="12.44" ry="6.91"/><circle class="cls-12" cx="750.82" cy="232.29" r="2.76"/><ellipse class="cls-12" cx="667.88" cy="251.65" rx="30.41" ry="19.35"/><ellipse class="cls-12" cx="694.15" cy="284.82" rx="6.91" ry="2.76"/><g class="cls-13"><ellipse class="cls-14" cx="687.24" cy="132.76" rx="24.88" ry="8.29"/></g><path class="cls-15" d="M690,130a94,94,0,1,0,94,94A94,94,0,0,0,690,130Zm0,182.47A88.47,88.47,0,1,1,778.47,224,88.57,88.57,0,0,1,690,312.47Z"/><ellipse class="cls-16" cx="1135.54" cy="242.06" rx="202.46" ry="201.87"/><g class="cls-17"><path class="cls-18" d="M1102.77,138.16v3A18,18,0,0,1,1089,158.7L899,204.6l13.87-48.33,1.91-.3c123.86-17.63,172.63-17.81,173.11-17.81Z"/><path class="cls-18" d="M921.16,224.25c3.78-11.9,24.64-13.94,47.64-17.81,55.34-9.32,48.33-15.64,101.23-23.75,25-3.84,46.77-8.08,83.37-5.94,32.79,1.92,36.08,6.82,65.5,5.94,22-.66,25.22-3.55,65.51-5.94,21.94-1.3,34.31-1.23,47.64,0,18,1.67,27,2.05,35.72,5.94,25.63,11.45,41.1,41.29,35.73,47.5-2.44,2.82-8.19-.39-59.55-17.81-10.82-3.68-16.24-5.51-17.86-5.94-25.58-6.75-45.32-3.21-71.46,0-15.72,1.93-44.67,5.49-71.46,5.94-33.81.57-35.21-4.3-71.45-5.94-44.07-2-89.33,11.87-101.24,17.81-31.59,15.75-71,26.67-83.36,17.81C921.81,238.27,919.26,230.23,921.16,224.25Z"/><path class="cls-18" d="M1339.29,259.36l-25.24-2.8a255,255,0,0,0-47.45-.8L1213,259.88v5.93h34.25a376.7,376.7,0,0,1,73.69,7.28l23.06,4.6V264.56A5.22,5.22,0,0,0,1339.29,259.36Z"/><path class="cls-18" d="M1332.05,319.25h-71.46l-51.75,3.44a192,192,0,0,1-73.3-9.38h0a282.5,282.5,0,0,0-41.69-17.81c-35.73-11.87-41.68-5.94-47.64-5.94-2.38,0-8.59,2.86-15.18,6.29a80,80,0,0,0-31.53,29.78l-2.25,3.73a16.33,16.33,0,0,0-.6,15.73h0a78.71,78.71,0,0,0,42.8,38.43h0a82.92,82.92,0,0,0,38.48,4.7l111.71-12.85a323.26,323.26,0,0,0,46-8.71l33.1-8.8a247,247,0,0,0,63.33-26.74h0Z"/><path class="cls-19" d="M927.12,289.56l37.56-12.48a220.8,220.8,0,0,1,69.62-11.27h0v5.94l-13.87,4.61a440.36,440.36,0,0,0-42.83,16.77l-44.53,20.18Z"/><path class="cls-19" d="M1361.82,295.5h-43.44a227.47,227.47,0,0,0-32.05,2.27l-25.74,3.67v5.93h0a155.11,155.11,0,0,1,57.42,11h0q2.13.86,4.18,1.87L1344,331.12Z"/></g><ellipse class="cls-1" cx="1135.54" cy="242.06" rx="202.46" ry="201.87"/><ellipse class="cls-19" cx="1102.78" cy="176.75" rx="26.8" ry="11.87"/><ellipse class="cls-19" cx="1180.2" cy="200.5" rx="14.89" ry="5.94"/><ellipse class="cls-19" cx="1081.94" cy="337.06" rx="41.68" ry="17.81"/><ellipse class="cls-18" cx="1254.63" cy="239.1" rx="23.82" ry="8.91"/><ellipse class="cls-18" cx="1156.38" cy="411.28" rx="20.84" ry="8.91"/><ellipse class="cls-18" cx="1147.45" cy="90.66" rx="47.64" ry="14.84"/><path class="cls-15" d="M1135.54,40.2c-111.82,0-202.47,90.37-202.47,201.86s90.65,201.87,202.47,201.87S1338,353.55,1338,242.06,1247.35,40.2,1135.54,40.2Zm0,391.86c-105.08,0-190.56-85.23-190.56-190s85.48-190,190.56-190,190.55,85.23,190.55,190S1240.61,432.06,1135.54,432.06Z"/><path class="cls-20" d="M1709.48,761.42C1571,823.07,1472,902.83,1488.36,939.57s141.87,16.54,280.35-45.11S2006.18,753,1989.83,716.3,1848,699.76,1709.48,761.42ZM1759.6,874c-110.22,49.07-208.75,68.23-220.07,42.8s68.84-85.83,179.06-134.91,208.74-68.23,220.07-42.79S1869.81,824.92,1759.6,874Z"/><path class="cls-20" d="M1709.48,761.42C1571,823.07,1472,902.83,1488.36,939.57s141.87,16.54,280.35-45.11S2006.18,753,1989.83,716.3,1848,699.76,1709.48,761.42ZM1759.6,874c-110.22,49.07-208.75,68.23-220.07,42.8s68.84-85.83,179.06-134.91,208.74-68.23,220.07-42.79S1869.81,824.92,1759.6,874Z"/><circle class="cls-21" cx="1739.09" cy="827.94" r="190.44"/><g class="cls-22"><rect class="cls-23" x="1514.75" y="702.07" width="369.68" height="16.8" transform="translate(-125.28 459.01) rotate(-14.84)"/><rect class="cls-24" x="1500.51" y="765.89" width="436.9" height="22.4" transform="translate(-141.69 466.19) rotate(-14.84)"/><rect class="cls-25" x="1500.25" y="810.73" width="448.1" height="16.8" transform="translate(-152.28 468.96) rotate(-14.84)"/><rect class="cls-24" x="1507.43" y="826.6" width="448.1" height="39.21" transform="translate(-158.98 471.7) rotate(-14.84)"/><rect class="cls-23" x="1519.62" y="878.67" width="448.1" height="11.2" transform="translate(-168.32 476.1) rotate(-14.84)"/><rect class="cls-24" x="1531.82" y="930.72" width="448.1" height="28.01" transform="translate(-183.4 481.24) rotate(-14.84)"/><rect class="cls-25" x="1537.55" y="957.98" width="448.1" height="16.8" transform="translate(-188.75 483.43) rotate(-14.84)"/></g><path class="cls-15" d="M1739.09,637.5c-105.18,0-190.44,85.26-190.44,190.44s85.26,190.44,190.44,190.44,190.45-85.26,190.45-190.44S1844.27,637.5,1739.09,637.5Zm0,369.68c-98.83,0-179.24-80.41-179.24-179.24s80.41-179.24,179.24-179.24,179.24,80.41,179.24,179.24S1837.93,1007.18,1739.09,1007.18Z"/><g class="cls-22"><rect class="cls-23" x="1514.75" y="702.07" width="369.68" height="16.8" transform="translate(-125.28 459.01) rotate(-14.84)"/><rect class="cls-24" x="1500.51" y="765.89" width="436.9" height="22.4" transform="translate(-141.69 466.19) rotate(-14.84)"/><rect class="cls-25" x="1500.25" y="810.73" width="448.1" height="16.8" transform="translate(-152.28 468.96) rotate(-14.84)"/><rect class="cls-24" x="1507.43" y="826.6" width="448.1" height="39.21" transform="translate(-158.98 471.7) rotate(-14.84)"/><rect class="cls-23" x="1519.62" y="878.67" width="448.1" height="11.2" transform="translate(-168.32 476.1) rotate(-14.84)"/><rect class="cls-24" x="1531.82" y="930.72" width="448.1" height="28.01" transform="translate(-183.4 481.24) rotate(-14.84)"/><rect class="cls-25" x="1537.55" y="957.98" width="448.1" height="16.8" transform="translate(-188.75 483.43) rotate(-14.84)"/></g><path class="cls-15" d="M1739.09,637.5c-105.18,0-190.44,85.26-190.44,190.44s85.26,190.44,190.44,190.44,190.45-85.26,190.45-190.44S1844.27,637.5,1739.09,637.5Zm0,369.68c-98.83,0-179.24-80.41-179.24-179.24s80.41-179.24,179.24-179.24,179.24,80.41,179.24,179.24S1837.93,1007.18,1739.09,1007.18Z"/><path class="cls-20" d="M1928,803.35c-39.66,30.24-95.22,62.62-159.25,91.13s-125.24,48.11-174.25,57.36c-57,10.75-97.29,7.5-106.09-12.27s15.74-51.92,61.84-87a185.62,185.62,0,0,0,6.1,29c-14.22,14.45-20.55,26.78-16.8,35.23s17.14,12,37.42,11.15c40.66-1.74,109-21.17,182.65-53.94s133.82-70.58,162.27-99.65c14.23-14.45,20.56-26.77,16.81-35.23s-17.14-12-37.42-11.14A194.27,194.27,0,0,0,1883.72,704c57-10.76,97.29-7.51,106.08,12.26S1974.07,768.23,1928,803.35Z"/><circle class="cls-1" cx="1918.49" cy="279" r="171.51"/><path class="cls-26" d="M1933.62,52c-16.71,0-30.26,101.63-30.26,227s13.55,227,30.26,227,30.27-101.63,30.27-227S1950.34,52,1933.62,52Zm0,443.91c-11.14,0-20.17-97.11-20.17-216.91s9-216.91,20.17-216.91S1953.8,159.2,1953.8,279,1944.77,495.91,1933.62,495.91Z"/><circle class="cls-27" cx="1918.49" cy="279" r="171.51"/><g class="cls-28"><path class="cls-29" d="M1834.46,102.37c8.33,8.81,14.42,19.23,19.92,30,5.84,11.41,11.46,23,16.63,34.75a191.09,191.09,0,0,1,16.2,75.6c.34,26.82-3.1,53.57-6.2,80.16-2.85,24.39-6.09,48.76-11.39,72.75-6,27.19-14.73,53.73-28.41,78.07-4.78,8.5,8.29,16.14,13.07,7.64,25.78-45.86,34.56-98.15,40.82-149.72,3.31-27.29,7-54.77,7.25-82.3.3-28-3.95-55.29-14.63-81.26-5.73-14-12.34-27.58-19.12-41.06-6.38-12.7-13.62-24.93-23.44-35.31-6.7-7.1-17.39,3.62-10.7,10.7Z"/><path class="cls-29" d="M2043.51,149.27c10.83,34,13.58,69.7,13.94,105.17.18,17.61-.13,35.24-.5,52.85-.36,17-1,34-3.17,50.92-2.43,18.85-6.93,37.58-15,54.85-1.37,2.92,3,5.48,4.35,2.54,14.63-31.32,17.69-66.13,18.66-100.25,1-35.93,1.95-72.24-1.65-108.06a290.59,290.59,0,0,0-11.78-59.36c-1-3.08-5.86-1.76-4.86,1.34Z"/><path class="cls-29" d="M1836.11,285.26c1.77,43.83-1.11,87.82-12.71,129.89-.1,0-.15-.15-.25-.2-9-6.61-20.78-10.49-28.85-18.11-7.57-7.11-12.21-18.36-17.11-27.44-14-25.88-24.66-51-24.66-81,0-52.46,25.57-101.24,62.7-137.11C1829.05,194.4,1834.3,240.06,1836.11,285.26Z"/><path class="cls-29" d="M1836.11,285.26c-1.81-45.2-7.06-90.86-20.88-134-37.13,35.87-62.65,84.65-62.7,137.11,0,30,10.64,55.14,24.66,81,4.9,9.08,9.54,20.33,17.11,27.44,8.07,7.62,19.87,11.5,28.85,18.11.1.05.15.15.25.2C1835,373.08,1837.88,329.09,1836.11,285.26Zm-98.46,11.8c-3.38-60.58,26.38-118.8,69.91-159.35a7.12,7.12,0,0,1,2.42-1.57c-2-5.45-4.18-10.79-6.5-16.09-3.89-8.83,9.13-16.55,13.06-7.62,23.91,54.48,32.34,113.7,34.71,172.83,2.42,60.18-4.29,119.7-27.85,175.49-3.78,8.93-16.85,1.21-13.06-7.67,3.28-7.82,6.25-15.68,8.82-23.65a6.49,6.49,0,0,1-3.68-1.42c-10.09-7.46-22.7-11.7-31.88-20.48-8.68-8.32-13.82-20.07-19.47-30.47C1750.31,351.49,1739.26,326.47,1737.65,297.06Z"/><path class="cls-29" d="M1854.81,130.94c31.3,84.13,20.31,175.33,9.83,262.27-2.75,22.78-5.93,46.13-15.51,67.21-1.7,3.75-1,8.11,2.71,10.36,3.23,1.93,8.67,1,10.36-2.72,9-19.84,13.14-40.91,16-62.4q4.58-34.31,8-68.81c4.54-45.47,6.74-91.46.8-136.91-3.26-24.93-8.77-49.44-17.55-73-3.37-9-18-5.13-14.59,4Z"/></g><ellipse class="cls-26" cx="1989.11" cy="205.86" rx="10.09" ry="17.66"/><ellipse class="cls-26" cx="2004.25" cy="236.12" rx="5.04" ry="12.61"/><path class="cls-15" d="M1918.49,107.49A171.51,171.51,0,1,0,2090,279,171.51,171.51,0,0,0,1918.49,107.49Zm0,332.93c-89,0-161.42-72.41-161.42-161.42s72.41-161.42,161.42-161.42S2079.91,190,2079.91,279,2007.5,440.42,1918.49,440.42Z"/><path class="cls-26" d="M1933.62,52c-16.71,0-30.26,101.63-30.26,227s13.55,227,30.26,227,30.27-101.63,30.27-227S1950.34,52,1933.62,52Zm0,443.91c-11.14,0-20.17-97.11-20.17-216.91s9-216.91,20.17-216.91S1953.8,159.2,1953.8,279,1944.77,495.91,1933.62,495.91Z"/><path class="cls-27" d="M1947.34,120.15c4,39.6,6.46,96.1,6.46,158.85s-2.47,119.25-6.46,158.85c-.35,3.63-.7,7.11-1.11,10.44a170.15,170.15,0,0,1-25,2.17c-.9.05-1.86.05-2.77.05-1.56,0-3.18,0-4.74-.05a171.53,171.53,0,0,1,0-342.92c1.56-.05,3.18-.05,4.74-.05.91,0,1.87,0,2.77.05a170.15,170.15,0,0,1,25,2.17C1946.64,113,1947,116.52,1947.34,120.15Z"/><path class="cls-27" d="M2090,279a171.53,171.53,0,0,1-136,167.83c.51-3.43,1-7,1.47-10.7,5.24-40.75,8.42-96.19,8.42-157.13s-3.18-116.38-8.42-157.13c-.46-3.69-1-7.27-1.47-10.7A171.53,171.53,0,0,1,2090,279Z"/><g class="cls-28"><path class="cls-29" d="M1834.46,102.37c8.33,8.81,14.42,19.23,19.92,30,5.84,11.41,11.46,23,16.63,34.75a191.09,191.09,0,0,1,16.2,75.6c.34,26.82-3.1,53.57-6.2,80.16-2.85,24.39-6.09,48.76-11.39,72.75-6,27.19-14.73,53.73-28.41,78.07-4.78,8.5,8.29,16.14,13.07,7.64,25.78-45.86,34.56-98.15,40.82-149.72,3.31-27.29,7-54.77,7.25-82.3.3-28-3.95-55.29-14.63-81.26-5.73-14-12.34-27.58-19.12-41.06-6.38-12.7-13.62-24.93-23.44-35.31-6.7-7.1-17.39,3.62-10.7,10.7Z"/><path class="cls-29" d="M2043.51,149.27c10.83,34,13.58,69.7,13.94,105.17.18,17.61-.13,35.24-.5,52.85-.36,17-1,34-3.17,50.92-2.43,18.85-6.93,37.58-15,54.85-1.37,2.92,3,5.48,4.35,2.54,14.63-31.32,17.69-66.13,18.66-100.25,1-35.93,1.95-72.24-1.65-108.06a290.59,290.59,0,0,0-11.78-59.36c-1-3.08-5.86-1.76-4.86,1.34Z"/><path class="cls-29" d="M1836.11,285.26c1.77,43.83-1.11,87.82-12.71,129.89-.1,0-.15-.15-.25-.2-9-6.61-20.78-10.49-28.85-18.11-7.57-7.11-12.21-18.36-17.11-27.44-14-25.88-24.66-51-24.66-81,0-52.46,25.57-101.24,62.7-137.11C1829.05,194.4,1834.3,240.06,1836.11,285.26Z"/><path class="cls-29" d="M1815.23,151.27c-37.13,35.87-62.65,84.65-62.7,137.11,0,30,10.64,55.14,24.66,81,4.9,9.08,9.54,20.33,17.11,27.44,8.07,7.62,19.87,11.5,28.85,18.11.1.05.15.15.25.2,11.6-42.07,14.48-86.06,12.71-129.89C1834.3,240.06,1829.05,194.4,1815.23,151.27Zm-77.58,145.79c-3.38-60.58,26.38-118.8,69.91-159.35a7.12,7.12,0,0,1,2.42-1.57c-2-5.45-4.18-10.79-6.5-16.09-3.89-8.83,9.13-16.55,13.06-7.62,23.91,54.48,32.34,113.7,34.71,172.83,2.42,60.18-4.29,119.7-27.85,175.49-3.78,8.93-16.85,1.21-13.06-7.67,3.28-7.82,6.25-15.68,8.82-23.65a6.49,6.49,0,0,1-3.68-1.42c-10.09-7.46-22.7-11.7-31.88-20.48-8.68-8.32-13.82-20.07-19.47-30.47C1750.31,351.49,1739.26,326.47,1737.65,297.06Z"/><path class="cls-29" d="M1854.81,130.94c31.3,84.13,20.31,175.33,9.83,262.27-2.75,22.78-5.93,46.13-15.51,67.21-1.7,3.75-1,8.11,2.71,10.36,3.23,1.93,8.67,1,10.36-2.72,9-19.84,13.14-40.91,16-62.4q4.58-34.31,8-68.81c4.54-45.47,6.74-91.46.8-136.91-3.26-24.93-8.77-49.44-17.55-73-3.37-9-18-5.13-14.59,4Z"/></g><ellipse class="cls-26" cx="1989.11" cy="205.86" rx="10.09" ry="17.66"/><ellipse class="cls-26" cx="2004.25" cy="236.12" rx="5.04" ry="12.61"/><path class="cls-15" d="M1954,111.17c.51,3.43,1,7,1.47,10.7,71.22,16.74,124.44,80.86,124.44,157.13s-53.22,140.39-124.44,157.13c-.46,3.69-1,7.27-1.47,10.7a171.55,171.55,0,0,0,0-335.66Zm-41.66,6.51c2-.05,4.08-.1,6.15-.1h1.66a160.94,160.94,0,0,1,27.19,2.57c-.35-3.63-.7-7.11-1.11-10.44a170.15,170.15,0,0,0-25-2.17c-.9-.05-1.86-.05-2.77-.05-1.56,0-3.18,0-4.74.05a171.53,171.53,0,0,0,0,342.92c1.56.05,3.18.05,4.74.05.91,0,1.87,0,2.77-.05a170.15,170.15,0,0,0,25-2.17c.41-3.33.76-6.81,1.11-10.44a160.94,160.94,0,0,1-27.19,2.57h-1.66c-2.07,0-4.14-.05-6.15-.1-86.16-3.28-155.27-74.4-155.27-161.32S1826.18,121,1912.34,117.68Z"/><path class="cls-26" d="M1963.89,279c0,60.94-3.18,116.38-8.42,157.13-.46,3.69-1,7.27-1.47,10.7-5.34,36.72-12.51,59.17-20.38,59.17-7.61,0-14.52-21-19.87-55.54,1.56.05,3.18.05,4.74.05.91,0,1.87,0,2.77-.05,3.43,28.5,7.72,45.45,12.36,45.45s9.13-17.81,12.61-47.62c.41-3.33.76-6.81,1.11-10.44,4-39.6,6.46-96.1,6.46-158.85s-2.47-119.25-6.46-158.85c-.35-3.63-.7-7.11-1.11-10.44-3.48-29.81-7.87-47.62-12.61-47.62s-8.93,17-12.36,45.45c-.9-.05-1.86-.05-2.77-.05-1.56,0-3.18,0-4.74.05C1919.1,73,1926,52,1933.62,52c7.87,0,15,22.45,20.38,59.17.51,3.43,1,7,1.47,10.7C1960.71,162.62,1963.89,218.06,1963.89,279Z"/><circle class="cls-30" cx="2391.5" cy="616.5" r="164.5"/><g class="cls-31"><path class="cls-26" d="M2227,548.76h87.09v4.84c-9.19,1.53-18.83,3.39-28.85,5.65s-19.52,4.72-28.48,7.28l-5.57,1.59-43.54,14.51,14.51-33.87Z"/><path class="cls-26" d="M2575.35,674.56l-15.87-1.77a504.54,504.54,0,0,0-55.51-3.07h-30.22v4.84a116,116,0,0,1,17.18,2.54,113,113,0,0,1,21.53,7.14,108.39,108.39,0,0,1,29,19.35Z"/></g><ellipse class="cls-26" cx="2360.05" cy="572.96" rx="16.93" ry="4.84"/><ellipse class="cls-26" cx="2418.11" cy="676.98" rx="12.1" ry="7.26"/><circle class="cls-26" cx="2285.06" cy="689.07" r="4.84"/><ellipse class="cls-32" cx="2352.79" cy="655.21" rx="43.54" ry="19.35"/><ellipse class="cls-26" cx="2350.37" cy="676.98" rx="21.77" ry="7.26"/><path class="cls-15" d="M2391.5,452A164.5,164.5,0,1,0,2556,616.5,164.5,164.5,0,0,0,2391.5,452Zm0,319.32c-85.37,0-154.82-69.45-154.82-154.82s69.45-154.82,154.82-154.82,154.82,69.45,154.82,154.82S2476.87,771.32,2391.5,771.32Z"/><text class="cls-33" transform="translate(457.94 863.19)">A</text><text class="cls-34" transform="translate(407.94 436.19)">B</text><text class="cls-34" transform="translate(831.94 617.19)">C</text><text class="cls-34" transform="translate(668.24 383.87)">D</text><text class="cls-34" transform="translate(1173.24 494.87)">E</text><text class="cls-35" transform="translate(1554.24 656.87)">F</text><text class="cls-34" transform="translate(2118.24 241.87)">G</text><text class="cls-34" transform="translate(2301.24 839.87)">H</text></g><g id="Earth"><circle class="cls-36" cx="817.69" cy="759.11" r="125.31"/><g class="cls-37"><path class="cls-38" d="M945.76,745.06c2.37,15.75,4.42,32.29.56,48-4.46,18.14-18.5,29.32-28,44.91a5.3,5.3,0,0,1-4,2.66,55,55,0,0,0-3.78-12.29c8.2-11.74,19.19-21.45,23.41-35.43,4.83-16.24,2.09-34.57-.76-50.88C927,707,906,684.4,879.5,660.55A4.93,4.93,0,0,1,878,658.3c4.1-1.27,8.29-2.43,12.43-3.52C919.37,681.1,939.92,706.52,945.76,745.06Z"/><path class="cls-38" d="M933.13,742c2.85,16.31,5.59,34.64.76,50.88-4.22,14-15.21,23.69-23.41,35.43a55.33,55.33,0,0,0-19.11-23.25c-9-6.34-18.75-8.55-29.41-11.62-15.57-4.54-30.77-10.8-44.05-19.8-32.83-22.27-12.55-67.38,11-89.65,13.44-12.71,30.86-20.24,49-25.72a4.93,4.93,0,0,0,1.53,2.25C906,684.4,927,707,933.13,742Z"/><path class="cls-38" d="M914.26,840.63a59.76,59.76,0,0,1,1,12.57c-.2,7.23-12.27,7.23-12.07,0,.57-20.89-11.46-38.47-32.7-45.78-15.25-5.22-29.77-8.33-44.17-15.79-23.62-12.26-40.88-26.73-37.7-53.8,7.08-60.26,61.19-85.08,117.11-98.42,7.56-1.8,10.74,9,3.22,10.83-6.08,1.46-12.27,2.93-18.51,4.54-.8-.75-1.57-1.46-2.37-2.18-4.83-4.31-11.79.94-10.06,5.7-18.18,5.48-35.6,13-49,25.72-23.57,22.27-43.85,67.38-11,89.65,13.28,9,28.48,15.26,44.05,19.8,10.66,3.07,20.36,5.28,29.41,11.62a55.33,55.33,0,0,1,19.11,23.25c-.93,1.27-1.81,2.58-2.62,3.93C905,836.92,910,841.23,914.26,840.63Z"/><path class="cls-38" d="M914.26,840.63c-4.31.6-9.25-3.71-6.4-8.36.81-1.35,1.69-2.66,2.62-3.93A55,55,0,0,1,914.26,840.63Z"/><path class="cls-38" d="M888,652.6c.8.72,1.57,1.43,2.37,2.18-4.14,1.09-8.33,2.25-12.43,3.52C876.24,653.54,883.2,648.29,888,652.6Z"/><path class="cls-38" d="M747.92,772.6c5.49,25.21,2.69,53.63-8.59,76.78a4.64,4.64,0,0,1-2.91,2.61,5.2,5.2,0,0,0-2.18-6.67c-1.36-.81-2.69-1.69-4-2.61,10.17-21.6,12.31-49.91,5.53-72.87-5.2-17.54-18-30.19-31.66-41.54.33-1.36.66-2.69,1-4,1.84-6.6-7.92-9.54-10.39-3.72-3.95-4.46,3.35-11.21,8.58-7C723.37,729.55,742.24,746.58,747.92,772.6Z"/><path class="cls-38" d="M735.79,769.84c6.78,23,4.64,51.27-5.53,72.87-33.8-24.15-35.49-76.89-26.13-114.41C717.77,739.65,730.59,752.3,735.79,769.84Z"/><path class="cls-38" d="M734.24,845.32a5.2,5.2,0,0,1,2.18,6.67c-3.95,1.15-9.07-3.31-6.64-8.21.19-.37.33-.71.48-1.07C731.55,843.63,732.88,844.51,734.24,845.32Z"/><path class="cls-38" d="M729.78,843.78c-2.43,4.9,2.69,9.36,6.64,8.21-1.15,2.88-4.35,4.94-7.78,2.88-43.49-26.32-46.48-89.27-34.13-133.5a4.35,4.35,0,0,1,.26-.77,4,4,0,0,0,.77.77c2.84,2.29,5.75,4.61,8.59,6.93-9.36,37.52-7.67,90.26,26.13,114.41C730.11,843.07,730,843.41,729.78,843.78Z"/><path class="cls-38" d="M694.77,720.6c2.47-5.82,12.23-2.88,10.39,3.72-.37,1.29-.7,2.62-1,4-2.84-2.32-5.75-4.64-8.59-6.93A4,4,0,0,1,694.77,720.6Z"/></g><path class="cls-15" d="M817.69,633.8A125.32,125.32,0,1,0,943,759.11,125.32,125.32,0,0,0,817.69,633.8Zm0,243.26A117.95,117.95,0,1,1,935.63,759.11,118.08,118.08,0,0,1,817.69,877.06Z"/><path class="cls-39" d="M788.2,690.93a5.52,5.52,0,0,1-5.53,5.53H690.53a5.53,5.53,0,1,1,0-11.06H744a3.69,3.69,0,1,0,0-7.37h-5.53a5.53,5.53,0,0,1,0-11.06H779A5.53,5.53,0,0,1,779,678h-1.85a3.69,3.69,0,0,0,0,7.37h5.53A5.52,5.52,0,0,1,788.2,690.93Z"/><rect class="cls-39" x="791.89" y="666.97" width="18.43" height="11.06" rx="5.53"/><path class="cls-39" d="M924.57,757.27A5.52,5.52,0,0,1,919,762.8H845.33a5.53,5.53,0,0,1,0-11.06h1.84a3.69,3.69,0,1,0,0-7.37h-1.84a12.92,12.92,0,0,1-12.9-12.9,13,13,0,0,1,12.9-12.9h40.54a12.9,12.9,0,0,1,0,25.8H869.29a3.69,3.69,0,1,0,0,7.37H919A5.52,5.52,0,0,1,924.57,757.27Z"/><rect class="cls-39" x="714.49" y="770.17" width="55.29" height="11.06" rx="5.53"/><rect class="cls-39" x="784.51" y="770.17" width="25.8" height="11.06" rx="5.53"/><path class="cls-39" d="M854.54,875.21a5.27,5.27,0,0,1-5,5.53H756.34a5.55,5.55,0,0,1,0-11h15a3.71,3.71,0,0,0,0-7.38h-1.67c-10.08,0-18.31-9.1-18.31-20.27a21.47,21.47,0,0,1,5.36-14.33,17.51,17.51,0,0,1,12.95-5.94h30c10.09,0,18.31,9.11,18.31,20.27a21.46,21.46,0,0,1-5.36,14.34,17.5,17.5,0,0,1-12.95,5.93h-8.32a3.71,3.71,0,0,0,0,7.38h58.26A5.27,5.27,0,0,1,854.54,875.21Z"/><rect class="cls-39" x="861.91" y="869.69" width="18.43" height="11.06" rx="5.53"/></g><g id="Venus"><circle class="cls-21" cx="293" cy="494.99" r="105"/><g class="cls-40"><path class="cls-24" d="M186.38,544.1c38.94,2.45,80-7.74,118.06-15.27,37.39-7.4,80.48-14,114.08-32.8,20.82-11.65,2.15-43.67-18.7-32-15.59,8.72-34.16,12.36-51.33,16.79q-26.78,6.92-53.9,12.28C259.6,500,222.2,509.3,186.38,507c-23.81-1.5-23.72,35.57,0,37.06Z"/><path class="cls-25" d="M191,560.92a483.91,483.91,0,0,0,125.68-11.31c36.13-8.18,74.06-19,103.13-42.94,4.61-3.79-2-10.31-6.55-6.55-29.08,23.9-68.59,34.09-104.73,41.81A474.25,474.25,0,0,1,191,551.66c-6-.24-6,9,0,9.26Z"/><path class="cls-25" d="M176,476.24a594.29,594.29,0,0,0,241.07-99c4.85-3.39.23-11.42-4.67-8a588.53,588.53,0,0,1-238.86,98.05c-5.87,1-3.38,9.93,2.46,8.93Z"/></g><g class="cls-40"><path class="cls-24" d="M186.38,544.1c38.94,2.45,80-7.74,118.06-15.27,37.39-7.4,80.48-14,114.08-32.8,20.82-11.65,2.15-43.67-18.7-32-15.59,8.72-34.16,12.36-51.33,16.79q-26.78,6.92-53.9,12.28C259.6,500,222.2,509.3,186.38,507c-23.81-1.5-23.72,35.57,0,37.06Z"/><path class="cls-24" d="M198.52,538.3c-4,0-8-.12-11.75-.36-8.55-.54-12.23-7.64-12-14,0-1.8.81-10.76,10.25-10.76l1,0c3.77.24,7.68.36,11.64.36,27.84,0,56-5.78,83.16-11.37q7.56-1.56,15-3C314,495.56,332.2,491.4,350,486.8c2.8-.72,5.63-1.42,8.48-2.13,15-3.71,30.57-7.55,44.32-15.25a12.5,12.5,0,0,1,6.1-1.73c6.08,0,10.76,5.38,12.08,10.44.8,3.07,1.15,8.78-5.5,12.51-28.74,16.07-65.89,23.2-98.67,29.49-4.59.89-9.14,1.76-13.6,2.64-5.46,1.08-11,2.22-16.54,3.36C257.61,532.11,227.53,538.3,198.52,538.3Z"/><path class="cls-25" d="M191,560.92a483.91,483.91,0,0,0,125.68-11.31c36.13-8.18,74.06-19,103.13-42.94,4.61-3.79-2-10.31-6.55-6.55-29.08,23.9-68.59,34.09-104.73,41.81A474.25,474.25,0,0,1,191,551.66c-6-.24-6,9,0,9.26Z"/><path class="cls-25" d="M191,560.92a483.91,483.91,0,0,0,125.68-11.31c36.13-8.18,74.06-19,103.13-42.94,4.61-3.79-2-10.31-6.55-6.55-29.08,23.9-68.59,34.09-104.73,41.81A474.25,474.25,0,0,1,191,551.66c-6-.24-6,9,0,9.26Z"/><path class="cls-25" d="M176,476.24a594.29,594.29,0,0,0,241.07-99c4.85-3.39.23-11.42-4.67-8a588.53,588.53,0,0,1-238.86,98.05c-5.87,1-3.38,9.93,2.46,8.93Z"/><path class="cls-25" d="M176,476.24a594.29,594.29,0,0,0,241.07-99c4.85-3.39.23-11.42-4.67-8a588.53,588.53,0,0,1-238.86,98.05c-5.87,1-3.38,9.93,2.46,8.93Z"/><circle class="cls-1" cx="293" cy="494.99" r="98.82"/></g><ellipse class="cls-23" cx="229.7" cy="454.85" rx="7.72" ry="3.09"/><ellipse class="cls-23" cx="293" cy="505.8" rx="12.35" ry="4.63"/><ellipse class="cls-23" cx="366.99" cy="492.61" rx="4.45" ry="2.22" transform="translate(-164.75 185.04) rotate(-23.27)"/><circle class="cls-23" cx="345.5" cy="433.23" r="3.09"/><ellipse class="cls-23" cx="268.01" cy="571.36" rx="12.35" ry="4.63" transform="matrix(0.99, -0.11, 0.11, 0.99, -62.71, 33.86)"/><path class="cls-9" d="M293,390A105,105,0,1,0,398,495,105,105,0,0,0,293,390Zm0,203.82A98.82,98.82,0,1,1,391.82,495,98.93,98.93,0,0,1,293,593.81Z"/></g></g></svg>