<svg xmlns="http://www.w3.org/2000/svg" xmlns:xlink="http://www.w3.org/1999/xlink" viewBox="0 0 124 119"><defs><style>.cls-1{fill:none;}.cls-2{isolation:isolate;}.cls-3{fill:#656370;}.cls-4{clip-path:url(#clip-path);}.cls-5{opacity:0.1;}.cls-6{fill:#d8ca8b;}.cls-7{fill:#fff;opacity:0.8;mix-blend-mode:soft-light;}.cls-8{clip-path:url(#clip-path-2);}.cls-9{fill:#77afe0;}.cls-10{clip-path:url(#clip-path-3);}.cls-11{fill:#e1ffff;}.cls-12{fill:#5ad6e0;}.cls-13{clip-path:url(#clip-path-4);}.cls-14{fill:#73ecef;}</style><clipPath id="clip-path"><rect class="cls-1" x="10" y="10" width="22" height="14" rx="7"/></clipPath><clipPath id="clip-path-2"><path class="cls-1" d="M104,97a7,7,0,0,1-7,7H35a7,7,0,0,1,0-14h6a3,3,0,0,0,0-6H11a7,7,0,0,1,0-14H87a7,7,0,0,1,0,14,3,3,0,0,0,0,6H97A7,7,0,0,1,104,97Z"/></clipPath><clipPath id="clip-path-3"><path class="cls-1" d="M25,24H17a7,7,0,0,1-7-7h0a7,7,0,0,1,7-7h8a7,7,0,0,1,7,7h0A7,7,0,0,1,25,24Zm88,26h-7a3,3,0,0,1,0-6h1a7,7,0,0,0,0-14H96a3,3,0,0,1,0-6h1a7,7,0,0,0,0-14H43a7,7,0,0,0,0,14h1a3,3,0,0,1,0,6H11a7,7,0,0,0,0,14H26a3,3,0,0,1,0,6H19a7,7,0,0,0,0,14h94a7,7,0,0,0,0-14ZM97,90H87a3,3,0,0,1,0-6,7,7,0,0,0,0-14H11a7,7,0,0,0,0,14H41a3,3,0,0,1,0,6H35a7,7,0,0,0,0,14H97a7,7,0,0,0,0-14Zm19-13h0a7,7,0,0,0-7-7h-4a7,7,0,0,0-7,7h0a7,7,0,0,0,7,7h4A7,7,0,0,0,116,77Z"/></clipPath><clipPath id="clip-path-4"><circle class="cls-1" cx="62" cy="57" r="34"/></clipPath></defs><title>Asset 25</title><g class="cls-2"><g id="Layer_2" data-name="Layer 2"><g id="Uranus"><rect class="cls-3" x="10" y="10" width="22" height="14" rx="7"/><path class="cls-3" d="M120,57a7,7,0,0,1-7,7H19a7,7,0,0,1,0-14h7a3,3,0,0,0,0-6H11a7,7,0,0,1,0-14H44a3,3,0,0,0,0-6H43a7,7,0,0,1,0-14H97a7,7,0,0,1,0,14H96a3,3,0,0,0,0,6h11a7,7,0,0,1,0,14h-1a3,3,0,0,0,0,6h7A7,7,0,0,1,120,57Z"/><path class="cls-3" d="M104,97a7,7,0,0,1-7,7H35a7,7,0,0,1,0-14h6a3,3,0,0,0,0-6H11a7,7,0,0,1,0-14H87a7,7,0,0,1,0,14,3,3,0,0,0,0,6H97A7,7,0,0,1,104,97Z"/><rect class="cls-3" x="98" y="70" width="18" height="14" rx="7"/><g class="cls-4"><circle class="cls-5" cx="12" cy="12" r="12"/><circle class="cls-6" cx="12" cy="12" r="8"/><path class="cls-7" d="M12,4a8,8,0,1,0,8,8A8,8,0,0,0,12,4Zm0,14a6,6,0,1,1,6-6A6,6,0,0,1,12,18Z"/></g><rect class="cls-1" x="10" y="10" width="22" height="14" rx="7"/><g class="cls-8"><circle class="cls-5" cx="108" cy="103" r="16"/><circle class="cls-9" cx="108" cy="103" r="12"/><path class="cls-7" d="M108,91a12,12,0,1,0,12,12A12,12,0,0,0,108,91Zm0,22a10,10,0,1,1,10-10A10,10,0,0,1,108,113Z"/></g><rect class="cls-1" x="28" y="90" width="76" height="14" rx="7"/><g class="cls-10"><circle class="cls-5" cx="62" cy="57" r="46"/><circle class="cls-5" cx="62" cy="57" r="42"/><circle class="cls-5" cx="62" cy="57" r="38"/></g><circle class="cls-1" cx="62" cy="57" r="34"/><path class="cls-11" d="M65,12c-3.31,0-6,20.15-6,45s2.69,45,6,45,6-20.15,6-45S68.31,12,65,12Zm0,88c-2.21,0-4-19.25-4-43s1.79-43,4-43,4,19.25,4,43S67.21,100,65,100Z"/><circle class="cls-12" cx="62" cy="57" r="34"/><g class="cls-13"><path class="cls-14" d="M45.34,22c9.1,10.42,11.25,24.42,9.9,37.68C54,71.93,52.65,84.58,46.68,95.59c-.92,1.7,1.67,3.22,2.59,1.52,6.48-12,8-25.9,9.15-39.26s-1.86-27.57-11-38c-1.27-1.45-3.38.68-2.12,2.12Z"/><path class="cls-14" d="M86.78,31.28c2.66,8.57,2.86,17.52,2.75,26.43-.11,8.72,0,17.76-3.68,25.86-.27.59.6,1.1.86.51,3.62-8,3.68-16.82,3.81-25.45.13-9.29,0-18.66-2.77-27.61-.19-.61-1.16-.35-1,.26Z"/><path class="cls-14" d="M48.67,58.24C49.15,70.17,47.82,82,43.15,93c-.75,1.77-3.34.24-2.59-1.52.65-1.55,1.24-3.11,1.75-4.69a1.29,1.29,0,0,1-.73-.28c-2-1.48-4.5-2.32-6.32-4.06s-2.74-4-3.86-6c-2.74-5.07-4.93-10-5.25-15.86C25.48,48.57,31.38,37,40,29a1.41,1.41,0,0,1,.48-.31c-.4-1.08-.83-2.14-1.29-3.19C38.43,23.74,41,22.21,41.79,24,46.53,34.78,48.2,46.52,48.67,58.24ZM43.15,84a84,84,0,0,0,2.52-25.75c-.36-9-1.4-18-4.14-26.56C34.17,38.79,29.11,48.46,29.1,58.86c0,6,2.11,10.93,4.89,16.06,1,1.8,1.89,4,3.39,5.44S41.32,82.64,43.1,84Z"/><path class="cls-14" d="M45.67,58.24A84,84,0,0,1,43.15,84l0,0c-1.78-1.31-4.12-2.08-5.72-3.59S35,76.72,34,74.92c-2.78-5.13-4.89-10.11-4.89-16.06,0-10.4,5.07-20.07,12.43-27.18C44.27,40.23,45.31,49.28,45.67,58.24Z"/><path class="cls-14" d="M49.38,27.65c3.76,10.54,4.5,21.61,3.86,32.71-.6,10.53-.85,22.81-5,32.61-.74,1.75,1.84,3.28,2.59,1.51C55,84.65,55.4,72.76,56.12,62.22c.83-12,.21-24-3.85-35.37-.65-1.8-3.55-1-2.89.8Z"/></g><ellipse class="cls-11" cx="76" cy="42.5" rx="2" ry="3.5"/><ellipse class="cls-11" cx="79" cy="48.5" rx="1" ry="2.5"/><path class="cls-7" d="M62,23A34,34,0,1,0,96,57,34,34,0,0,0,62,23Zm0,66A32,32,0,1,1,94,57,32,32,0,0,1,62,89Z"/><path class="cls-11" d="M65,12c-3.31,0-6,20.15-6,45s2.69,45,6,45,6-20.15,6-45S68.31,12,65,12Zm0,88c-2.21,0-4-19.25-4-43s1.79-43,4-43,4,19.25,4,43S67.21,100,65,100Z"/><path class="cls-12" d="M67.72,25.51C68.51,33.36,69,44.56,69,57s-.49,23.64-1.28,31.49c-.07.72-.14,1.41-.22,2.07a33.73,33.73,0,0,1-5,.43H61.06a34,34,0,0,1,0-68h1.49a33.73,33.73,0,0,1,5,.43C67.58,24.1,67.65,24.79,67.72,25.51Z"/><path class="cls-12" d="M96,57A34,34,0,0,1,69,90.27c.1-.68.2-1.39.29-2.12A256.87,256.87,0,0,0,71,57a256.87,256.87,0,0,0-1.67-31.15c-.09-.73-.19-1.44-.29-2.12A34,34,0,0,1,96,57Z"/><g class="cls-13"><path class="cls-14" d="M45.34,22c9.1,10.42,11.25,24.42,9.9,37.68C54,71.93,52.65,84.58,46.68,95.59c-.92,1.7,1.67,3.22,2.59,1.52,6.48-12,8-25.9,9.15-39.26s-1.86-27.57-11-38c-1.27-1.45-3.38.68-2.12,2.12Z"/><path class="cls-14" d="M86.78,31.28c2.66,8.57,2.86,17.52,2.75,26.43-.11,8.72,0,17.76-3.68,25.86-.27.59.6,1.1.86.51,3.62-8,3.68-16.82,3.81-25.45.13-9.29,0-18.66-2.77-27.61-.19-.61-1.16-.35-1,.26Z"/><path class="cls-14" d="M48.67,58.24C49.15,70.17,47.82,82,43.15,93c-.75,1.77-3.34.24-2.59-1.52.65-1.55,1.24-3.11,1.75-4.69a1.29,1.29,0,0,1-.73-.28c-2-1.48-4.5-2.32-6.32-4.06s-2.74-4-3.86-6c-2.74-5.07-4.93-10-5.25-15.86C25.48,48.57,31.38,37,40,29a1.41,1.41,0,0,1,.48-.31c-.4-1.08-.83-2.14-1.29-3.19C38.43,23.74,41,22.21,41.79,24,46.53,34.78,48.2,46.52,48.67,58.24ZM43.15,84a84,84,0,0,0,2.52-25.75c-.36-9-1.4-18-4.14-26.56C34.17,38.79,29.11,48.46,29.1,58.86c0,6,2.11,10.93,4.89,16.06,1,1.8,1.89,4,3.39,5.44S41.32,82.64,43.1,84Z"/><path class="cls-14" d="M45.67,58.24A84,84,0,0,1,43.15,84l0,0c-1.78-1.31-4.12-2.08-5.72-3.59S35,76.72,34,74.92c-2.78-5.13-4.89-10.11-4.89-16.06,0-10.4,5.07-20.07,12.43-27.18C44.27,40.23,45.31,49.28,45.67,58.24Z"/><path class="cls-14" d="M49.38,27.65c3.76,10.54,4.5,21.61,3.86,32.71-.6,10.53-.85,22.81-5,32.61-.74,1.75,1.84,3.28,2.59,1.51C55,84.65,55.4,72.76,56.12,62.22c.83-12,.21-24-3.85-35.37-.65-1.8-3.55-1-2.89.8Z"/></g><ellipse class="cls-11" cx="76" cy="42.5" rx="2" ry="3.5"/><ellipse class="cls-11" cx="79" cy="48.5" rx="1" ry="2.5"/><path class="cls-7" d="M69,23.73c.1.68.2,1.39.29,2.12a32,32,0,0,1,0,62.3c-.09.73-.19,1.44-.29,2.12a34,34,0,0,0,0-66.54ZM60.78,25,62,25h.33a31.87,31.87,0,0,1,5.39.51c-.07-.72-.14-1.41-.22-2.07a33.73,33.73,0,0,0-5-.43H61.06a34,34,0,0,0,0,68h1.49a33.73,33.73,0,0,0,5-.43c.08-.66.15-1.35.22-2.07a31.87,31.87,0,0,1-5.39.51H62l-1.22,0a32,32,0,0,1,0-64Z"/><path class="cls-11" d="M71,57a256.87,256.87,0,0,1-1.67,31.15c-.09.73-.19,1.44-.29,2.12C68,97.55,66.56,102,65,102s-2.88-4.16-3.94-11h1.49c.68,5.65,1.53,9,2.45,9s1.81-3.53,2.5-9.44c.08-.66.15-1.35.22-2.07C68.51,80.64,69,69.44,69,57s-.49-23.64-1.28-31.49c-.07-.72-.14-1.41-.22-2.07C66.81,17.53,65.94,14,65,14s-1.77,3.36-2.45,9H61.06c1.06-6.85,2.43-11,3.94-11s3,4.45,4,11.73c.1.68.2,1.39.29,2.12A256.87,256.87,0,0,1,71,57Z"/></g></g></g></svg>