<svg xmlns="http://www.w3.org/2000/svg" xmlns:xlink="http://www.w3.org/1999/xlink" viewBox="0 0 123.99 118.99"><defs><style>.cls-1{fill:none;}.cls-2{isolation:isolate;}.cls-3{fill:#656370;}.cls-4{clip-path:url(#clip-path);}.cls-5{opacity:0.1;}.cls-6{fill:#d8ca8b;}.cls-7{clip-path:url(#clip-path-2);}.cls-8{fill:#bcaf75;}.cls-9{fill:#eadba0;}.cls-10{fill:#a59862;}.cls-11,.cls-14{fill:#fff;mix-blend-mode:soft-light;}.cls-11{opacity:0.68;}.cls-12{clip-path:url(#clip-path-4);}.cls-13{fill:#d0d0d8;}.cls-14{opacity:0.8;}.cls-15{clip-path:url(#clip-path-5);}.cls-16{fill:#78d2ea;}.cls-17{clip-path:url(#clip-path-6);}.cls-18{fill:#80e5c8;}</style><clipPath id="clip-path"><path class="cls-1" d="M25,109H17a7,7,0,0,1-7-7h0a7,7,0,0,1,7-7h8a7,7,0,0,1,7,7h0A7,7,0,0,1,25,109Zm95-47a7,7,0,0,0-7-7H19a7,7,0,0,0,0,14h7a3,3,0,0,1,0,6H11a7,7,0,0,0,0,14H44a3,3,0,1,1,0,6H43a7,7,0,0,0,0,14H97a7,7,0,0,0,0-14H96a3,3,0,0,1,0-6h11a7,7,0,0,0,0-14h-1a3,3,0,0,1,0-6h7A7,7,0,0,0,120,62ZM104,22a7,7,0,0,0-7-7H35a7,7,0,0,0,0,14h6a3,3,0,1,1,0,6H11a7,7,0,0,0,0,14H87a7,7,0,0,0,0-14,3,3,0,1,1,0-6H97A7,7,0,0,0,104,22ZM98,42h0a7,7,0,0,0,7,7h4a7,7,0,0,0,7-7h0a7,7,0,0,0-7-7h-4A7,7,0,0,0,98,42Z"/></clipPath><clipPath id="clip-path-2"><circle class="cls-1" cx="62" cy="61.99" r="34"/></clipPath><clipPath id="clip-path-4"><path class="cls-1" d="M32,102a7,7,0,0,1-7,7H17a4.44,4.44,0,0,1-.63,0,6.81,6.81,0,0,1-3-1A7,7,0,0,1,11,105.57a6.81,6.81,0,0,1-1-2.95,4.44,4.44,0,0,1,0-.63,6.66,6.66,0,0,1,.36-2.19A7,7,0,0,1,17,95h8a7,7,0,0,1,7,7Z"/></clipPath><clipPath id="clip-path-5"><path class="cls-1" d="M104,22a7,7,0,0,1-3.21,5.87A6.84,6.84,0,0,1,98,28.91,5.37,5.37,0,0,1,97,29H87a3,3,0,1,0,0,6,7,7,0,0,1,0,14H11a7,7,0,0,1,0-14H41a3,3,0,1,0,0-6H35a7,7,0,0,1,0-14H97a5.55,5.55,0,0,1,1,.08,7,7,0,0,1,3.94,2,8.26,8.26,0,0,1,.85,1h0A7,7,0,0,1,104,22Z"/></clipPath><clipPath id="clip-path-6"><circle class="cls-1" cx="108" cy="15.99" r="12"/></clipPath></defs><title>Asset 24</title><g class="cls-2"><g id="Layer_2" data-name="Layer 2"><g id="Venus"><path class="cls-3" d="M104,22a7,7,0,0,1-3.21,5.87A6.84,6.84,0,0,1,98,28.91,5.37,5.37,0,0,1,97,29H87a3,3,0,1,0,0,6,7,7,0,0,1,0,14H11a7,7,0,0,1,0-14H41a3,3,0,1,0,0-6H35a7,7,0,0,1,0-14H97a5.55,5.55,0,0,1,1,.08,7,7,0,0,1,3.94,2,8.26,8.26,0,0,1,.85,1h0A7,7,0,0,1,104,22Z"/><path class="cls-3" d="M32,102a7,7,0,0,1-7,7H17a4.44,4.44,0,0,1-.63,0,6.81,6.81,0,0,1-3-1A7,7,0,0,1,11,105.57a6.81,6.81,0,0,1-1-2.95,4.44,4.44,0,0,1,0-.63,6.66,6.66,0,0,1,.36-2.19A7,7,0,0,1,17,95h8a7,7,0,0,1,7,7Z"/><path class="cls-3" d="M120,62a7,7,0,0,0-7-7H19a7,7,0,0,0,0,14h7a3,3,0,0,1,0,6H11a7,7,0,0,0,0,14H44a3,3,0,1,1,0,6H43a7,7,0,0,0,0,14H97a7,7,0,0,0,0-14H96a3,3,0,0,1,0-6h11a7,7,0,0,0,0-14h-1a3,3,0,0,1,0-6h7A7,7,0,0,0,120,62Z"/><rect class="cls-3" x="98" y="34.99" width="18" height="14" rx="7"/><g class="cls-4"><circle class="cls-5" cx="62" cy="61.99" r="46"/><circle class="cls-5" cx="62" cy="61.99" r="42"/><circle class="cls-5" cx="62" cy="61.99" r="38"/></g><circle class="cls-6" cx="62" cy="61.99" r="34"/><g class="cls-7"><path class="cls-8" d="M27.47,77.9c12.61.79,25.92-2.51,38.23-5,12.11-2.39,26.06-4.53,37-10.62,6.74-3.77.69-14.14-6.06-10.36-5,2.82-11.06,4-16.62,5.44q-8.67,2.23-17.46,4c-11.33,2.24-23.44,5.25-35,4.52-7.71-.49-7.68,11.51,0,12Z"/><path class="cls-9" d="M29,83.34a156.32,156.32,0,0,0,40.69-3.66c11.7-2.65,24-6.16,33.4-13.9,1.49-1.23-.64-3.34-2.12-2.13C91.52,71.4,78.73,74.7,67,77.19a152.85,152.85,0,0,1-38,3.15c-1.93-.07-1.93,2.93,0,3Z"/><path class="cls-9" d="M24.12,55.92a192.45,192.45,0,0,0,78.06-32c1.57-1.1.07-3.7-1.51-2.59A190.46,190.46,0,0,1,23.32,53c-1.9.32-1.1,3.22.8,2.89Z"/></g><g class="cls-7"><path class="cls-8" d="M27.47,77.9c12.61.79,25.92-2.51,38.23-5,12.11-2.39,26.06-4.53,37-10.62,6.74-3.77.69-14.14-6.06-10.36-5,2.82-11.06,4-16.62,5.44q-8.67,2.23-17.46,4c-11.33,2.24-23.44,5.25-35,4.52-7.71-.49-7.68,11.51,0,12Z"/><path class="cls-8" d="M31.4,76c-1.29,0-2.57,0-3.8-.12a4.15,4.15,0,0,1-3.9-4.53c0-.58.27-3.49,3.32-3.49h.33c1.22.08,2.49.12,3.77.12,9,0,18.12-1.87,26.93-3.68l4.85-1c5.88-1.16,11.79-2.51,17.57-4l2.74-.69c4.87-1.2,9.9-2.44,14.36-4.94a4,4,0,0,1,2-.56,4.38,4.38,0,0,1,3.91,3.38,3.38,3.38,0,0,1-1.78,4c-9.31,5.21-21.34,7.52-31.95,9.56-1.49.28-3,.56-4.4.85L60,72.08C50.54,74,40.8,76,31.4,76Z"/><path class="cls-9" d="M29,83.34a156.32,156.32,0,0,0,40.69-3.66c11.7-2.65,24-6.16,33.4-13.9,1.49-1.23-.64-3.34-2.12-2.13C91.52,71.4,78.73,74.7,67,77.19a152.85,152.85,0,0,1-38,3.15c-1.93-.07-1.93,2.93,0,3Z"/><path class="cls-9" d="M29,83.34a156.32,156.32,0,0,0,40.69-3.66c11.7-2.65,24-6.16,33.4-13.9,1.49-1.23-.64-3.34-2.12-2.13C91.52,71.4,78.73,74.7,67,77.19a152.85,152.85,0,0,1-38,3.15c-1.93-.07-1.93,2.93,0,3Z"/><path class="cls-9" d="M24.12,55.92a192.45,192.45,0,0,0,78.06-32c1.57-1.1.07-3.7-1.51-2.59A190.46,190.46,0,0,1,23.32,53c-1.9.32-1.1,3.22.8,2.89Z"/><path class="cls-9" d="M24.12,55.92a192.45,192.45,0,0,0,78.06-32c1.57-1.1.07-3.7-1.51-2.59A190.46,190.46,0,0,1,23.32,53c-1.9.32-1.1,3.22.8,2.89Z"/><circle class="cls-1" cx="62" cy="61.99" r="32"/></g><ellipse class="cls-10" cx="41.5" cy="48.99" rx="2.5" ry="1"/><ellipse class="cls-10" cx="62" cy="65.49" rx="4" ry="1.5"/><ellipse class="cls-10" cx="85.96" cy="61.22" rx="1.44" ry="0.72" transform="translate(-17.19 38.94) rotate(-23.27)"/><circle class="cls-10" cx="79" cy="41.99" r="1"/><ellipse class="cls-10" cx="53.91" cy="86.72" rx="4" ry="1.5" transform="translate(-9.43 6.63) rotate(-6.47)"/><path class="cls-11" d="M62,28A34,34,0,1,0,96,62,34,34,0,0,0,62,28Zm0,66A32,32,0,1,1,94,62,32,32,0,0,1,62,94Z"/><rect class="cls-1" x="28" y="14.99" width="76" height="14" rx="7"/><g class="cls-12"><circle class="cls-5" cx="12" cy="106.99" r="12"/><circle class="cls-13" cx="12" cy="106.99" r="8"/><path class="cls-14" d="M20,107a8,8,0,1,0-8,8A8,8,0,0,0,20,107Zm-2,0a6,6,0,1,1-6-6A6,6,0,0,1,18,107Z"/></g><rect class="cls-1" x="10" y="94.99" width="22" height="14" rx="7"/><g class="cls-15"><circle class="cls-5" cx="108" cy="15.99" r="16"/><circle class="cls-16" cx="108" cy="15.99" r="12"/><g class="cls-17"><ellipse class="cls-18" cx="99.18" cy="12.92" rx="8.5" ry="6" transform="translate(32.06 87.07) rotate(-55.27)"/></g><path class="cls-14" d="M117.86,22.83a12,12,0,1,0-16.7,3A12,12,0,0,0,117.86,22.83Zm-1.64-1.14A10,10,0,1,1,113.7,7.78,10,10,0,0,1,116.22,21.69Z"/></g></g></g></g></svg>